<svg viewBox="0 0 330 200" xmlns="http://www.w3.org/2000/svg"><g><g><g><g><g><line x1="50" y1="177" x2="45" y2="177" style="visibility: inherit;" fill="rgb(0, 0, 0)" stroke="rgb(204, 204, 204)" stroke-width="1px"></line><line x1="50" y1="157.33333333333331" x2="45" y2="157.33333333333331" style="visibility: inherit;" fill="rgb(0, 0, 0)" stroke="rgb(204, 204, 204)" stroke-width="1px"></line><line x1="50" y1="137.66666666666666" x2="45" y2="137.66666666666666" style="visibility: inherit;" fill="rgb(0, 0, 0)" stroke="rgb(204, 204, 204)" stroke-width="1px"></line><line x1="50" y1="118.00000000000001" x2="45" y2="118.00000000000001" style="visibility: inherit;" fill="rgb(0, 0, 0)" stroke="rgb(204, 204, 204)" stroke-width="1px"></line><line x1="50" y1="98.33333333333334" x2="45" y2="98.33333333333334" style="visibility: inherit;" fill="rgb(0, 0, 0)" stroke="rgb(204, 204, 204)" stroke-width="1px"></line><line x1="50" y1="78.66666666666666" x2="45" y2="78.66666666666666" style="visibility: inherit;" fill="rgb(0, 0, 0)" stroke="rgb(204, 204, 204)" stroke-width="1px"></line><line x1="50" y1="59.00000000000001" x2="45" y2="59.00000000000001" style="visibility: inherit;" fill="rgb(0, 0, 0)" stroke="rgb(204, 204, 204)" stroke-width="1px"></line><line x1="50" y1="39.333333333333314" x2="45" y2="39.333333333333314" style="visibility: inherit;" fill="rgb(0, 0, 0)" stroke="rgb(204, 204, 204)" stroke-width="1px"></line><line x1="50" y1="19.666666666666657" x2="45" y2="19.666666666666657" style="visibility: inherit;" fill="rgb(0, 0, 0)" stroke="rgb(204, 204, 204)" stroke-width="1px"></line><line x1="50" y1="0" x2="45" y2="0" style="visibility: inherit;" fill="rgb(0, 0, 0)" stroke="rgb(204, 204, 204)" stroke-width="1px"></line></g><g transform="translate(40, 0)"><text x="0" y="177" dx="0em" dy="0.3em" style="text-anchor: end; visibility: hidden; font-family: Roboto, sans-serif; font-size: 12px; font-weight: 200;" fill="rgb(33, 33, 33)" stroke="none" stroke-width="1px">0</text><text x="0" y="157.33333333333331" dx="0em" dy="0.3em" style="text-anchor: end; visibility: inherit; font-family: Roboto, sans-serif; font-size: 12px; font-weight: 200;" fill="rgb(33, 33, 33)" stroke="none" stroke-width="1px">0.01</text><text x="0" y="137.66666666666666" dx="0em" dy="0.3em" style="text-anchor: end; visibility: hidden; font-family: Roboto, sans-serif; font-size: 12px; font-weight: 200;" fill="rgb(33, 33, 33)" stroke="none" stroke-width="1px">0.02</text><text x="0" y="118.00000000000001" dx="0em" dy="0.3em" style="text-anchor: end; visibility: inherit; font-family: Roboto, sans-serif; font-size: 12px; font-weight: 200;" fill="rgb(33, 33, 33)" stroke="none" stroke-width="1px">0.03</text><text x="0" y="98.33333333333334" dx="0em" dy="0.3em" style="text-anchor: end; visibility: hidden; font-family: Roboto, sans-serif; font-size: 12px; font-weight: 200;" fill="rgb(33, 33, 33)" stroke="none" stroke-width="1px">0.04</text><text x="0" y="78.66666666666666" dx="0em" dy="0.3em" style="text-anchor: end; visibility: inherit; font-family: Roboto, sans-serif; font-size: 12px; font-weight: 200;" fill="rgb(33, 33, 33)" stroke="none" stroke-width="1px">0.05</text><text x="0" y="59.00000000000001" dx="0em" dy="0.3em" style="text-anchor: end; visibility: hidden; font-family: Roboto, sans-serif; font-size: 12px; font-weight: 200;" fill="rgb(33, 33, 33)" stroke="none" stroke-width="1px">0.06</text><text x="0" y="39.333333333333314" dx="0em" dy="0.3em" style="text-anchor: end; visibility: inherit; font-family: Roboto, sans-serif; font-size: 12px; font-weight: 200;" fill="rgb(33, 33, 33)" stroke="none" stroke-width="1px">0.07</text><text x="0" y="19.666666666666657" dx="0em" dy="0.3em" style="text-anchor: end; visibility: hidden; font-family: Roboto, sans-serif; font-size: 12px; font-weight: 200;" fill="rgb(33, 33, 33)" stroke="none" stroke-width="1px">0.08</text><text x="0" y="0" dx="0em" dy="0.3em" style="text-anchor: end; visibility: hidden; font-family: Roboto, sans-serif; font-size: 12px; font-weight: 200;" fill="rgb(33, 33, 33)" stroke="none" stroke-width="1px">0.09</text></g><line x1="50" y1="0" x2="50" y2="177" fill="rgb(0, 0, 0)" stroke="rgb(204, 204, 204)" stroke-width="1px"></line></g></g><g transform="translate(50, 0)" clip-path="url(#clip_0)"><clipPath id="clip_0"><rect width="280" height="177"></rect></clipPath><g><g><g><line x1="0" y1="0" x2="0" y2="177" fill="rgb(0, 0, 0)" stroke="rgb(66, 66, 66)" stroke-width="1px" opacity="0.25"></line><line x1="28" y1="0" x2="28" y2="177" fill="rgb(0, 0, 0)" stroke="rgb(66, 66, 66)" stroke-width="1px" opacity="0.25"></line><line x1="56" y1="0" x2="56" y2="177" fill="rgb(0, 0, 0)" stroke="rgb(66, 66, 66)" stroke-width="1px" opacity="0.25"></line><line x1="84" y1="0" x2="84" y2="177" fill="rgb(0, 0, 0)" stroke="rgb(66, 66, 66)" stroke-width="1px" opacity="0.25"></line><line x1="112" y1="0" x2="112" y2="177" fill="rgb(0, 0, 0)" stroke="rgb(66, 66, 66)" stroke-width="1px" opacity="0.25"></line><line x1="140" y1="0" x2="140" y2="177" fill="rgb(0, 0, 0)" stroke="rgb(66, 66, 66)" stroke-width="1px" opacity="0.25"></line><line x1="168" y1="0" x2="168" y2="177" fill="rgb(0, 0, 0)" stroke="rgb(66, 66, 66)" stroke-width="1px" opacity="0.25"></line><line x1="196" y1="0" x2="196" y2="177" fill="rgb(0, 0, 0)" stroke="rgb(66, 66, 66)" stroke-width="1px" opacity="0.25"></line><line x1="224" y1="0" x2="224" y2="177" fill="rgb(0, 0, 0)" stroke="rgb(66, 66, 66)" stroke-width="1px" opacity="0.25"></line><line x1="252" y1="0" x2="252" y2="177" fill="rgb(0, 0, 0)" stroke="rgb(66, 66, 66)" stroke-width="1px" opacity="0.25"></line><line x1="280" y1="0" x2="280" y2="177" fill="rgb(0, 0, 0)" stroke="rgb(66, 66, 66)" stroke-width="1px" opacity="0.25"></line></g><g><line x1="0" y1="177" x2="280" y2="177" fill="rgb(0, 0, 0)" stroke="rgb(66, 66, 66)" stroke-width="1px" opacity="0.25"></line><line x1="0" y1="157.33333333333331" x2="280" y2="157.33333333333331" fill="rgb(0, 0, 0)" stroke="rgb(66, 66, 66)" stroke-width="1px" opacity="0.25"></line><line x1="0" y1="137.66666666666666" x2="280" y2="137.66666666666666" fill="rgb(0, 0, 0)" stroke="rgb(66, 66, 66)" stroke-width="1px" opacity="0.25"></line><line x1="0" y1="118.00000000000001" x2="280" y2="118.00000000000001" fill="rgb(0, 0, 0)" stroke="rgb(66, 66, 66)" stroke-width="1px" opacity="0.25"></line><line x1="0" y1="98.33333333333334" x2="280" y2="98.33333333333334" fill="rgb(0, 0, 0)" stroke="rgb(66, 66, 66)" stroke-width="1px" opacity="0.25"></line><line x1="0" y1="78.66666666666666" x2="280" y2="78.66666666666666" fill="rgb(0, 0, 0)" stroke="rgb(66, 66, 66)" stroke-width="1px" opacity="0.25"></line><line x1="0" y1="59.00000000000001" x2="280" y2="59.00000000000001" fill="rgb(0, 0, 0)" stroke="rgb(66, 66, 66)" stroke-width="1px" opacity="0.25"></line><line x1="0" y1="39.333333333333314" x2="280" y2="39.333333333333314" fill="rgb(0, 0, 0)" stroke="rgb(66, 66, 66)" stroke-width="1px" opacity="0.25"></line><line x1="0" y1="19.666666666666657" x2="280" y2="19.666666666666657" fill="rgb(0, 0, 0)" stroke="rgb(66, 66, 66)" stroke-width="1px" opacity="0.25"></line><line x1="0" y1="0" x2="280" y2="0" fill="rgb(0, 0, 0)" stroke="rgb(66, 66, 66)" stroke-width="1px" opacity="0.25"></line></g></g></g><g><g><line x1="0" y1="177" x2="280" y2="177" fill="rgb(0, 0, 0)" stroke="rgb(153, 153, 153)" stroke-width="1.5px"></line></g></g><g><g><line x1="28" y1="0" x2="28" y2="177" fill="rgb(0, 0, 0)" stroke="rgb(153, 153, 153)" stroke-width="1.5px"></line></g></g><g><g><g><g><g><path stroke="rgb(255, 112, 67)" stroke-width="2px" d="M28.56,114.06784322857857L29.119999999999997,107.51220875543852L29.68,100.15383979252408L30.24,92.0871810786353L30.8,83.42331348193098L31.36,74.27632434991334L31.92,64.7526827899005L32.480000000000004,54.94476029858755L33.04,44.92818336746426L33.6,34.76210772189341L34.16,28.7025936915366L34.72,25.08293569721795L35.28,22.91942389063552L35.84,21.627655006635763L36.4,20.859064676030243L36.96,20.40525923760896L37.52,20.141464197329704L38.080000000000005,19.99291103590603L38.64,19.91478493291815L39.2,19.880191820565727L39.76,19.873005560966398L40.32,19.88355791069303L40.879999999999995,19.906036754134437L41.44,19.93696673248213L42,19.974250968205165L42.56,20.016637212363023L43.12,20.063374117958865L43.68,20.114005014168548L44.24,20.168255896411427L44.800000000000004,20.22596236017074L45.36,20.287025761439203L45.92,20.351386912918606L46.480000000000004,20.419004440510484L47.040000000000006,20.489859380489666L47.6,20.563928632121648L48.16,20.64121005705123L48.72,20.72169064991483L49.279999999999994,20.805362607429036L49.839999999999996,20.89222710870562L50.4,20.982279000062064L50.96,21.07550932814902L51.519999999999996,21.171912720946505L52.08,21.271491816359525L52.64,21.37423647488013L53.2,21.480146473924552L53.76,21.589215818817397L54.32,21.701435051629165L54.88,21.81681021984829L55.440000000000005,21.93532736859729L56,22.056983986072744L56.56,22.181778565192634L57.12,22.30970434058414L57.68,22.440757253023424L58.239999999999995,22.574923144729535L58.8,22.712205243280586L59.36,22.852599624100026L59.92,22.9960922101951L60.48,23.142686277617027L61.04,23.29237206974963L61.6,23.44513787149992L62.160000000000004,23.600982514935374L62.72,23.759899438173164L63.28,23.92187884296016L63.84,24.08692071146788L64.4,24.255013310752457L64.96000000000001,24.42614960104752L65.52000000000001,24.600325358493315L66.08,24.777532187650525L66.64,24.957765051255592L67.2,25.1410092047035L67.75999999999999,25.32726752347822L68.32,25.51652414949978L68.88,25.70877542904363L69.44,25.904007447628285L70,26.10222357881155L70.56,26.303408263357994L71.12,26.50755216572634L71.68,26.714643823468386L72.24000000000001,26.924688081362067L72.8,27.13766440178048L73.36,27.35356046214752L73.92,27.572374730040952L74.48,27.79410628600736L75.04,28.018731133881104L75.60000000000001,28.246246598209687L76.16000000000001,28.476651073721495L76.72,28.70992015276004L77.28,28.946050912978148L77.84,29.18503573984419L78.4,29.426858342392322L78.96,29.671514807166506L79.52,29.91899692496966L80.08,30.16928804803675L80.64,30.422389909955584L81.19999999999999,30.678280106385166L81.75999999999999,30.936945194720998L82.32,31.198382970523692L82.88,31.46258038888286L83.44,31.729529622852265L84,31.99921425401736L84.56,32.271624431329414L85.12,32.54674838303574L85.67999999999999,32.82457904608476L86.24,33.10510632152216L86.8,33.388312427728515L87.36,33.67418669573216L87.92,33.96271686302672L88.48,34.253895572108334L89.04,34.5477125473513L89.60000000000001,34.84414404001001L90.16,35.14319338420725L90.72,35.444833274799755L91.28,35.74905905094832L91.84,36.05585619390264L92.4,36.36521599241251L92.96000000000001,36.6771273586044L93.52000000000001,36.991571917507386L94.08000000000001,37.308532783015565L94.64,37.62800568458875L95.2,37.9499704765326L95.76,38.27442093255399L96.32,38.601341594630156L96.88,38.93071146570069L97.44,39.262529669776086L98,39.59677223676911L98.55999999999999,39.9334306457508L99.11999999999999,40.27248806191694L99.67999999999999,40.61393438438499L100.24,40.95775183037872L100.8,41.303923869108864L101.36,41.652440582101974L101.92,42.003290157150495L102.48,42.3564596458065L103.03999999999999,42.71192955675449L103.6,43.069682334081676L104.16,43.42970744424047L104.72,43.791986844855444L105.28,44.15650971050136L105.84,44.52326368479971L106.4,44.89222963167654L106.96000000000001,45.263390208364086L107.52,45.636729148078295L108.08,46.01223082962533L108.64,46.38989174141228L109.2,46.76968047086638L109.76,47.15158989269083L110.32000000000001,47.53560400946069L110.88000000000001,47.92170736159759L111.44000000000001,48.309890673354516L112,48.700119073666265L112.56,49.092395084387334L113.12,49.48669091301339L113.68,49.88300160628862L114.24,50.28129488664253L114.8,50.68156310977964L115.36,51.08379582799928L115.91999999999999,51.487969189310796L116.47999999999999,51.89406888251984L117.03999999999999,52.30208045978635L117.6,52.71197766903611L118.16,53.12375648127143L118.72,53.53738810403829L119.28,53.952858192426085L119.84,54.370158139488375L120.39999999999999,54.7892651976871L120.96,55.210159857376084L121.52,55.63283334332923L122.08,56.05725694591732L122.64,56.48341930048623L123.2,56.91129893543498L123.76,57.34088589836463L124.32000000000001,57.772153703903975L124.88,58.205092321953664L125.44,58.63967815108387L126,59.07589703043673L126.56,59.51373167181238L127.12,59.95315998004411L127.68,60.39416576747021L128.24,60.836727599246835L128.8,61.28083554502936L129.36,61.726463132679136L129.92000000000002,62.17359740947464L130.48000000000002,62.62221595097448L131.04000000000002,63.07230530251384L131.6,63.52383980792356L132.16,63.97680700406388L132.72,64.43118769080415L133.28,64.88696448694253L133.84,65.34411524151118L134.4,65.80262080280592L134.96,66.26246088811921L135.51999999999998,66.72362332782646L136.07999999999998,67.18608323678275L136.64,67.64982568390113L137.2,68.11482705772086L137.76,68.58107319136559L138.32,69.04854093190094L138.88,69.51721638756626L139.44,69.98706777881165L140,70.4580877601539L140.56,70.93025434093285L141.12,71.40354846562909L141.68,71.87794697868405L142.24,72.35343305620101L142.8,72.82999074271846L143.36,73.307595812151L143.92000000000002,73.786227867724L144.48000000000002,74.26586587968755L145.04,74.74649723019179L145.6,75.22809969571813L146.16,75.71064821990878L146.72,76.19413069951068L147.28,76.6785222892018L147.84,77.16380222066552L148.4,77.64995510235016L148.96,78.13695118539286L149.52,78.6247814121609L150.08,79.11342276470455L150.64000000000001,79.60285557113046L151.20000000000002,80.09305630605591L151.76000000000002,80.58400792368953L152.32000000000002,81.07568554374795L152.88000000000002,81.56807423806126L153.44,82.06115625804226L154,82.55490630173023L154.56,83.0493003962636L155.12,83.54432708848715L155.68,84.0399560620141L156.24,84.53618084925921L156.8,85.03296533349261L157.36,85.53030249748493L157.92,86.02816468640485L158.48,86.52652651566854L159.04,87.02538154621077L159.6,87.52469660897545L160.16,88.02445180252886L160.72,88.52463811657246L161.28,89.02522376987187L161.83999999999997,89.52619848537157L162.39999999999998,90.02752679122118L162.95999999999998,90.52919912655727L163.51999999999998,91.03119510205336L164.07999999999998,91.53349076186663L164.64,92.03606587136814L165.2,92.53889949809528L165.76,93.04196736032377L166.32,93.5452607501424L166.88,94.04874513718744L167.44,94.55241152548746L168,95.05622521184259L168.56,95.560174166018L169.12,96.064239447626L169.68,96.5683950396255L170.24,97.07262826235345L170.79999999999998,97.5769139246419L171.35999999999999,98.08122812010497L171.92,98.5855535743494L172.48,99.0898711310541L173.04,99.59415171305628L173.6,100.09838373518163L174.16,100.60254266295537L174.72,101.10660791456921L175.28,101.61056127981476L175.84,102.11437717975856L176.4,102.61804026704041L176.96,103.12152374987409L177.52,103.6248086226261L178.08,104.12788055135468L178.64000000000001,104.63071042176281L179.20000000000002,105.13328955695746L179.76,105.63558344518572L180.32,106.1375772405193L180.88,106.63925031315439L181.44,107.14058442408535L182,107.64155397710022L182.56,108.14214361447183L183.12,108.64232653819379L183.68,109.14208960002377L184.24,109.6414043970846L184.8,110.14025974877333L185.36,110.63862257167294L185.92000000000002,111.13647887685653L186.48000000000002,111.63381734040631L187.04000000000002,112.13060186235458L187.60000000000002,112.62681957440586L188.16000000000003,113.12245396389768L188.72,113.61747753986243L189.28,114.1118767382812L189.84,114.60562290681072L190.4,115.09870031932594L190.96,115.59109074846666L191.52,116.08277153557L192.08,116.57372322431479L192.64,117.06392241866155L193.2,117.55335215042491L193.76,118.04199491228934L194.32,118.5298240817762L194.88,119.0168207548366L195.44,119.50297212376036L196,119.98824998998943L196.56,120.47264476079326L197.11999999999998,120.95612284019737L197.67999999999998,121.43867139702131L198.23999999999998,121.92027394087168L198.79999999999998,122.40090592470399L199.35999999999999,122.88054675916811L199.92,123.35918116009223L200.48,123.83678383888396L201.04,124.31334108766869L201.6,124.7888256330706L202.16,125.26322843746846L202.72,125.73652209907672L203.28,126.20868431570076L203.84,126.67970610186622L204.4,127.14956008707583L204.96,127.6182254531886L205.51999999999998,128.08569410516256L206.07999999999998,128.55193627619803L206.64,129.0169399673386L207.2,129.48068039584024L207.76,129.9431412267756L208.32,130.40430533278416L208.88,130.86414778464098L209.44,131.32265655537282L210,131.77980391486386L210.56,132.2355761556063L211.12,132.68995919197206L211.68,133.14292698921403L212.24,133.5944624612032L212.8,134.04455096041949L213.36,134.49316904554243L213.92000000000002,134.94030411706055L214.48000000000002,135.38593396245847L215.04,135.8300364625419L215.6,136.27260420691755L216.16,136.71360783957513L216.72,137.1530385385935L217.28,137.5908675663263L217.84,138.02708354130928L218.4,138.46167230825947L218.96,138.8946063253561L219.52,139.3258793244727L220.08,139.7554626349589L220.64000000000001,140.18334784610948L221.20000000000002,140.60950939756958L221.76000000000002,141.03393488368786L222.32000000000002,141.45660367354589L222.88000000000002,141.87750192331177L223.44,142.29660667387787L224,142.71390854562208L224.56,143.1293828621202L225.12,143.54301335223673L225.68,143.95479025329047L226.24,144.36468865902162L226.8,144.77269802151685L227.36,145.17879442865785L227.92,145.58296499845468L228.48,145.98519687323025L229.04,146.3854669529294L229.6,146.7837591795978L230.16,147.1800639184628L230.72,147.5743585379311L231.28,147.96663532017004L231.83999999999997,148.35686618998645L232.39999999999998,148.74504016338784L232.95999999999998,149.13114625413615L233.51999999999998,149.51515955447792L234.07999999999998,149.89707317880575L234.64,150.27686467974456L235.2,150.65451985622886L235.76,151.03002872233853L236.32,151.40336843579172L236.88,151.774528221781L237.44,152.14348989317514L238,152.5102410724145L238.56,152.87476480863782L239.12,153.23704946604744L239.68,153.597071212435L240.24,153.9548201443181L240.79999999999998,154.31028885432633L241.35999999999999,154.66345238410563L241.92,155.01430381768822L242.48,155.36282215476362L243.04,155.70900065626896L243.6,156.05281696275588L244.16,156.39426351967882L244.72,156.7333204088614L245.28,157.0699749467575L245.84,157.40421952323936L246.4,157.73603272150052L246.96,158.0654024240976L247.52,158.39232136056455L248.08,158.71676905053238L248.64000000000001,159.03873760162222L249.20000000000002,159.35820762559828L249.76,159.67516748951905L250.32,159.98961021361967L250.88,160.30151549195182L251.44,160.61087700206994L252,160.9176762976982" style="fill: none;" fill="none"></path></g></g></g></g><g opacity="0.2"><g><g><g><path stroke="rgb(255, 112, 67)" stroke-width="2px" d="M28.56,114.06784322857857L29.119999999999997,103.57882807155451L29.68,93.08980558812618L30.24,82.60079043110211L30.8,72.11176794767378L31.36,61.62274546424548L31.92,51.133722980817154L32.480000000000004,40.64471515019735L33.04,30.15567801396051L33.6,19.666670183340702L34.16,19.66828199227651L34.72,19.673146724700914L35.28,19.68122042218843L35.84,19.69253239035605L36.4,19.707082629203796L36.96,19.72487113873163L37.52,19.745883266131084L38.080000000000005,19.77011901140213L38.64,19.79760768016178L39.2,19.828305313984554L39.76,19.8622265656789L40.32,19.899386088053387L40.879999999999995,19.939754575490944L41.44,19.983361333608627L42,20.030177056789398L42.56,20.080216397841756L43.12,20.13347935676574L43.68,20.189951280752812L44.24,20.249632169802975L44.800000000000004,20.312522023916245L45.36,20.3786208430926L45.92,20.44792862733205L46.480000000000004,20.520430723826085L47.040000000000006,20.59614178538321L47.6,20.67503250638643L48.16,20.757132192452733L48.72,20.84241153796513L49.279999999999994,20.9308705429236L49.839999999999996,21.02252386013666L50.4,21.117356836795807L50.96,21.21535482009251L51.519999999999996,21.316517810026806L52.08,21.420860459407155L52.64,21.528353462616597L53.2,21.639011472463594L53.76,21.752819836139665L54.32,21.869763900836293L54.88,21.989872972170513L55.440000000000005,22.113103091716752L56,22.23946891228357L56.56,22.368970433870942L57.12,22.50159300367037L57.68,22.63733662168184L58.239999999999995,22.776171982288346L58.8,22.918128391106915L59.36,23.063191195329022L59.92,23.21133108933765L60.48,23.36257737874984L61.04,23.51690075794855L61.6,23.67428657412529L62.160000000000004,23.83474948008855L62.72,23.998274823029835L63.28,24.164847950140626L63.84,24.334483514229458L64.4,24.50715220967928L64.96000000000001,24.682854036490113L65.52000000000001,24.861588994661968L66.08,25.043342431386296L66.64,25.22811434666315L67.2,25.41587543487548L67.75999999999999,25.60665500164032L68.32,25.80040908853213L68.88,25.997152348359418L69.44,26.196855475505178L70,26.39954777558643L70.56,26.605185290177662L71.12,26.81376801927883L71.68,27.025281310081475L72.24000000000001,27.239754468202577L72.8,27.457128882408142L73.36,27.67740455269813L73.92,27.900596131881077L74.48,28.126703619956963L75.04,28.355668405691777L75.60000000000001,28.587519794702516L76.16000000000001,28.822257786989198L76.72,29.05982377131779L77.28,29.30024705330531L77.84,29.54351298014322L78.4,29.78959224621454L78.96,30.038499504327767L79.52,30.29022010167439L80.08,30.544724732637405L80.64,30.802042702833813L81.19999999999999,31.06211540102958L81.75999999999999,31.324942827224724L82.32,31.590539634227746L82.88,31.858876516421628L83.44,32.12995347380637L84,32.40374120076497L84.56,32.68023969729742L85.12,32.95943431059519L85.67999999999999,33.2413250406583L86.24,33.52589723467827L86.8,33.81312158703804L87.36,34.10299809773762L87.92,34.395512113968536L88.48,34.690663635730736L89.04,34.98843801021575L89.60000000000001,35.28879127899805L90.16,35.59176740050315L90.72,35.897293110688516L91.28,36.20539771517118L91.84,36.516051908334084L92.4,36.82925569017727L92.96000000000001,37.14499440789222L93.52000000000001,37.463238755861916L94.08000000000001,37.78397408127783L94.64,38.10721503694852L95.2,38.43291766444842L95.76,38.76109661658604L96.32,39.0917225877444L96.88,39.42476627230643L97.44,39.76025697588919L98,40.09813608725865L98.55999999999999,40.43841825922329L99.11999999999999,40.78107418616613L99.67999999999999,41.12610386808713L100.24,41.473477999369294L100.8,41.82318192720412L101.36,42.17521565159161L101.92,42.529564519723245L102.48,42.886213878790535L103.03999999999999,43.24513442317645L103.6,43.60631150007248L104.16,43.96974510947862L104.72,44.33540594577788L105.28,44.70329400897025L105.84,45.07339464624722L106.4,45.445678551991776L106.96000000000001,45.820131073395416L107.52,46.19673755764961L108.08,46.57548335194588L108.64,46.956383109092705L109.2,47.339363565047584L109.76,47.7244540254275L110.32000000000001,48.111625184615455L110.88000000000001,48.50086238980293L111.44000000000001,48.892165640989944L112,49.285461674133934L112.56,49.680809100468956L113.12,50.07813465595245L113.68,50.477467646201454L114.24,50.878734807173416L114.8,51.28196544448534L115.36,51.68714490532874L115.91999999999999,52.094229231278106L116.47999999999999,52.5032184223334L117.03999999999999,52.91409782568614L117.6,53.32682348291078L118.16,53.741424699624375L118.72,54.15783553818861L119.28,54.57606332500775L119.84,54.9961080600818L120.39999999999999,55.41792578498522L120.96,55.84150184690952L121.52,56.26684357225894L122.08,56.69389234979946L122.64,57.12266283233961L123.2,57.55311838785807L123.76,57.98526634275913L124.32000000000001,58.419055412213L124.88,58.8545002490282L125.44,59.291556894779205L126,59.730225349466L126.56,60.17048363387584L127.12,60.6123024423917L127.68,61.05567444860934L128.24,61.50057034691174L128.8,61.946997463703156L129.36,62.3949045141538L129.92000000000002,62.844298824667916L130.48000000000002,63.295143763224274L131.04000000000002,63.747439329822846L131.6,64.20114156603813L132.16,64.65625779827435L132.72,65.11275872091453L133.28,65.57062968115012L133.84,66.02984137336412L134.4,66.49037914474805L134.96,66.95222101608913L135.51999999999998,67.41536698738734L136.07999999999998,67.87977310021718L136.64,68.34543935457864L137.2,68.81232911845048L137.76,69.28044239183268L138.32,69.74974254270394L138.88,70.22022957106431L139.44,70.69184486567974L140,71.16461773216724L140.56,71.63850421210131L141.12,72.11348965267341L141.68,72.58954474826653L142.24,73.06666217247644L142.8,73.54482727249464L143.36,74.02400341629982L143.92000000000002,74.5041759510835L144.48000000000002,74.98532289763291L145.04,75.46744425594807L145.6,75.95050339400768L146.16,76.43447100619474L146.72,76.91935441891353L147.28,77.40510967373847L147.84,77.89172211786111L148.4,78.37918442487717L148.96,78.86744530995688L149.52,79.35652675231297L150.08,79.84638479351996L150.64000000000001,80.33700478076935L151.20000000000002,80.82835740844408L151.76000000000002,81.32043535013993L152.32000000000002,81.81320197383562L152.88000000000002,82.30665727953117L153.44,82.80077928801377L154,83.2955313672622L154.56,83.79089153806368L155.12,84.28686712682247L155.68,84.78339952230452L156.24,85.28051803012688L156.8,85.77814205984275L157.36,86.27630824347337L157.92,86.77495796978474L158.48,87.27406925956409L159.04,87.77366409202416L159.6,88.27366920312245L160.16,88.77408459285893L160.72,89.2749175876379L161.28,89.77610224982104L161.83999999999997,90.27766055862106L162.39999999999998,90.77951924999554L162.95999999999998,91.28170762956142L163.51999999999998,91.78418906529744L164.07999999999998,92.2869342515866L164.64,92.78992853562036L165.2,93.29314993818602L165.76,93.7965691536665L166.32,94.30020083487034L166.88,94.803971717755L167.44,95.30791110793747L168,95.81194574137528L168.56,96.31609759728111L169.12,96.82033737003803L169.68,97.3246284276247L170.24,97.8289780964454L170.79999999999998,98.33334241807461L171.35999999999999,98.83769941329956L171.92,99.34204175571598L172.48,99.84634746611118L173.04,100.35057258605957L173.6,100.85473176836967L174.16,101.35878105461597L174.72,101.86270579198994L175.28,102.36649132768314L175.84,102.87010102967419L176.4,103.37353489796321L176.96,103.87674897412458L177.52,104.3797359317541L178.08,104.88248844444752L178.64000000000001,105.38495522737502L179.20000000000002,105.88715825974941L179.76,106.38902427752814L180.32,106.89056793351968L180.88,107.39175992210706L181.44,107.89258559048176L182,108.3930083066225L182.56,108.8930280705293L183.12,109.39260092377663L183.68,109.89173419276874L184.24,110.39037659267585L184.8,110.88854277630648L185.36,111.38616680602233L185.92000000000002,111.88326333463192L186.48000000000002,112.379825035731L187.04000000000002,112.87577864527702L187.60000000000002,113.37114614248276L188.16000000000003,113.86590554813543L188.72,114.36001290380955L189.28,114.85347553590934L189.84,115.34624215960503L190.4,115.83831643809876L190.96,116.32967639217775L191.52,116.820292716225L192.08,117.31015075743198L192.64,117.79922121018171L193.2,118.28749674806993L193.76,118.77495905508597L194.32,119.26156783600649L194.88,119.74731576442719L195.44,120.23219917714594L196,120.71616678933302L196.56,121.19923691699903L197.11999999999998,121.68133995930354L197.67999999999998,122.16249423225722L198.23999999999998,122.64267775664727L198.79999999999998,123.12185390045246L199.35999999999999,123.60000801086426L199.92,124.07713276147842L200.48,124.55318785707156L201.04,125.0281769608458L201.6,125.50205245117345L202.16,125.97483264406522L202.72,126.44646259148917L203.28,126.91692764063677L203.84,127.38623878111443L204.4,127.85434106489022L204.96,128.32122350235778L205.51999999999998,128.78689708312353L206.07999999999998,129.25129953275123L206.64,129.71444550404945L207.2,130.17629103859267L207.76,130.6368324731787L208.32,131.09605149179697L208.88,131.55391146242619L209.44,132.0104197114706L210,132.46552495410046L210.56,132.91923451671997L211.12,133.37153374652067L211.68,133.82237868507704L212.24,134.2717656691869L212.8,134.71968370924395L213.36,135.16609617322683L213.92000000000002,135.61100672433773L214.48000000000002,136.05437873055538L215.04,136.496190212667L215.6,136.93645582348108L216.16,137.3751132885615L216.72,137.812184587121L217.28,138.2476111079256L217.84,138.6814075037837L218.4,139.11355545868477L218.96,139.54400735100108L219.52,139.97278882314762L220.08,140.39983760068813L220.64000000000001,140.82517566283542L221.20000000000002,141.24875172475973L221.76000000000002,141.6705731128653L222.32000000000002,142.09060685833296L222.88000000000002,142.5088492979606L223.44,142.92526379972696L224,143.33986135323843L224.56,143.75259433686733L225.12,144.16345908741155L225.68,144.57245560487112L226.24,144.97953626761833L226.8,145.3847120652596L227.36,145.7879390393694L227.92,146.1892208531499L228.48,146.58854468539357L229.04,146.98587207247814L229.6,147.3811975196004L230.16,147.77452102676034L230.72,148.16580046713352L231.28,148.55505049352846L231.83999999999997,148.94221249471107L232.39999999999998,149.32730112348995L232.95999999999998,149.7103053902586L233.51999999999998,150.09117950499058L234.07999999999998,150.4699436152975L234.64,150.84655193115273L235.2,151.2210026209553L235.76,151.59329202150306L236.32,151.9633780059715L236.88,152.33126790076494L237.44,152.69693240026632L238,153.06036784127355L238.56,153.42155041297278L239.12,153.78047645216188L239.68,154.13710383201638L240.24,154.4914435421427L240.79999999999998,154.8434919193387L241.35999999999999,155.1931976787746L241.92,155.5405809680621L242.48,155.88559966037673L243.04,156.228268408527L243.6,156.5685414224863L244.16,156.9064333550632L244.72,157.24190574263534L245.28,157.57495675360164L245.84,157.9055863879621L246.4,158.2337525188923L246.96,158.55945697799325L247.52,158.882699765265L248.08,159.20344058548412L248.64000000000001,159.521690428257L249.20000000000002,159.83741266156235L249.76,160.1506072854002L250.32,160.4612742997706L250.88,160.76937340945005L251.44,161.0749192672471L252,161.37787524114054" style="fill: none;" fill="none"></path></g></g></g></g></g><g><g opacity="0.903639"><span fill="rgb(0, 0, 0)" stroke="none" stroke-width="1px">Alt + Scroll to Zoom</span></g></g></g><g transform="translate(50, 177)" clip-path="url(#clip_1)"><clipPath id="clip_1"><rect width="280" height="23"></rect></clipPath><g><g><line x1="0" y1="0" x2="0" y2="5" style="visibility: inherit;" fill="rgb(0, 0, 0)" stroke="rgb(204, 204, 204)" stroke-width="1px"></line><line x1="28" y1="0" x2="28" y2="5" style="visibility: inherit;" fill="rgb(0, 0, 0)" stroke="rgb(204, 204, 204)" stroke-width="1px"></line><line x1="56" y1="0" x2="56" y2="5" style="visibility: inherit;" fill="rgb(0, 0, 0)" stroke="rgb(204, 204, 204)" stroke-width="1px"></line><line x1="84" y1="0" x2="84" y2="5" style="visibility: inherit;" fill="rgb(0, 0, 0)" stroke="rgb(204, 204, 204)" stroke-width="1px"></line><line x1="112" y1="0" x2="112" y2="5" style="visibility: inherit;" fill="rgb(0, 0, 0)" stroke="rgb(204, 204, 204)" stroke-width="1px"></line><line x1="140" y1="0" x2="140" y2="5" style="visibility: inherit;" fill="rgb(0, 0, 0)" stroke="rgb(204, 204, 204)" stroke-width="1px"></line><line x1="168" y1="0" x2="168" y2="5" style="visibility: inherit;" fill="rgb(0, 0, 0)" stroke="rgb(204, 204, 204)" stroke-width="1px"></line><line x1="196" y1="0" x2="196" y2="5" style="visibility: inherit;" fill="rgb(0, 0, 0)" stroke="rgb(204, 204, 204)" stroke-width="1px"></line><line x1="224" y1="0" x2="224" y2="5" style="visibility: inherit;" fill="rgb(0, 0, 0)" stroke="rgb(204, 204, 204)" stroke-width="1px"></line><line x1="252" y1="0" x2="252" y2="5" style="visibility: inherit;" fill="rgb(0, 0, 0)" stroke="rgb(204, 204, 204)" stroke-width="1px"></line><line x1="280" y1="0" x2="280" y2="5" style="visibility: inherit;" fill="rgb(0, 0, 0)" stroke="rgb(204, 204, 204)" stroke-width="1px"></line></g><g transform="translate(0, 8)"><text x="0" y="0" dx="0em" dy="0.95em" style="text-anchor: middle; visibility: hidden; font-family: Roboto, sans-serif; font-size: 12px; font-weight: 200;" fill="rgb(33, 33, 33)" stroke="none" stroke-width="1px">-5k</text><text x="28" y="0" dx="0em" dy="0.95em" style="text-anchor: middle; visibility: inherit; font-family: Roboto, sans-serif; font-size: 12px; font-weight: 200;" fill="rgb(33, 33, 33)" stroke="none" stroke-width="1px">0</text><text x="56" y="0" dx="0em" dy="0.95em" style="text-anchor: middle; visibility: inherit; font-family: Roboto, sans-serif; font-size: 12px; font-weight: 200;" fill="rgb(33, 33, 33)" stroke="none" stroke-width="1px">5k</text><text x="84" y="0" dx="0em" dy="0.95em" style="text-anchor: middle; visibility: inherit; font-family: Roboto, sans-serif; font-size: 12px; font-weight: 200;" fill="rgb(33, 33, 33)" stroke="none" stroke-width="1px">10k</text><text x="112" y="0" dx="0em" dy="0.95em" style="text-anchor: middle; visibility: inherit; font-family: Roboto, sans-serif; font-size: 12px; font-weight: 200;" fill="rgb(33, 33, 33)" stroke="none" stroke-width="1px">15k</text><text x="140" y="0" dx="0em" dy="0.95em" style="text-anchor: middle; visibility: inherit; font-family: Roboto, sans-serif; font-size: 12px; font-weight: 200;" fill="rgb(33, 33, 33)" stroke="none" stroke-width="1px">20k</text><text x="168" y="0" dx="0em" dy="0.95em" style="text-anchor: middle; visibility: inherit; font-family: Roboto, sans-serif; font-size: 12px; font-weight: 200;" fill="rgb(33, 33, 33)" stroke="none" stroke-width="1px">25k</text><text x="196" y="0" dx="0em" dy="0.95em" style="text-anchor: middle; visibility: inherit; font-family: Roboto, sans-serif; font-size: 12px; font-weight: 200;" fill="rgb(33, 33, 33)" stroke="none" stroke-width="1px">30k</text><text x="224" y="0" dx="0em" dy="0.95em" style="text-anchor: middle; visibility: inherit; font-family: Roboto, sans-serif; font-size: 12px; font-weight: 200;" fill="rgb(33, 33, 33)" stroke="none" stroke-width="1px">35k</text><text x="252" y="0" dx="0em" dy="0.95em" style="text-anchor: middle; visibility: inherit; font-family: Roboto, sans-serif; font-size: 12px; font-weight: 200;" fill="rgb(33, 33, 33)" stroke="none" stroke-width="1px">40k</text><text x="280" y="0" dx="0em" dy="0.95em" style="text-anchor: middle; visibility: hidden; font-family: Roboto, sans-serif; font-size: 12px; font-weight: 200;" fill="rgb(33, 33, 33)" stroke="none" stroke-width="1px">45k</text></g><line x1="0" y1="0" x2="280" y2="0" fill="rgb(0, 0, 0)" stroke="rgb(204, 204, 204)" stroke-width="1px"></line></g></g></g></g></svg>