<svg viewBox="0 0 330 200" xmlns="http://www.w3.org/2000/svg"><g><g><g><g><g><line x1="50" y1="177" x2="45" y2="177" style="visibility: inherit;" fill="rgb(0, 0, 0)" stroke="rgb(204, 204, 204)" stroke-width="1px"></line><line x1="50" y1="164.35714285714286" x2="45" y2="164.35714285714286" style="visibility: inherit;" fill="rgb(0, 0, 0)" stroke="rgb(204, 204, 204)" stroke-width="1px"></line><line x1="50" y1="151.71428571428572" x2="45" y2="151.71428571428572" style="visibility: inherit;" fill="rgb(0, 0, 0)" stroke="rgb(204, 204, 204)" stroke-width="1px"></line><line x1="50" y1="139.07142857142856" x2="45" y2="139.07142857142856" style="visibility: inherit;" fill="rgb(0, 0, 0)" stroke="rgb(204, 204, 204)" stroke-width="1px"></line><line x1="50" y1="126.42857142857144" x2="45" y2="126.42857142857144" style="visibility: inherit;" fill="rgb(0, 0, 0)" stroke="rgb(204, 204, 204)" stroke-width="1px"></line><line x1="50" y1="113.78571428571428" x2="45" y2="113.78571428571428" style="visibility: inherit;" fill="rgb(0, 0, 0)" stroke="rgb(204, 204, 204)" stroke-width="1px"></line><line x1="50" y1="101.14285714285715" x2="45" y2="101.14285714285715" style="visibility: inherit;" fill="rgb(0, 0, 0)" stroke="rgb(204, 204, 204)" stroke-width="1px"></line><line x1="50" y1="88.50000000000001" x2="45" y2="88.50000000000001" style="visibility: inherit;" fill="rgb(0, 0, 0)" stroke="rgb(204, 204, 204)" stroke-width="1px"></line><line x1="50" y1="75.85714285714286" x2="45" y2="75.85714285714286" style="visibility: inherit;" fill="rgb(0, 0, 0)" stroke="rgb(204, 204, 204)" stroke-width="1px"></line><line x1="50" y1="63.21428571428572" x2="45" y2="63.21428571428572" style="visibility: inherit;" fill="rgb(0, 0, 0)" stroke="rgb(204, 204, 204)" stroke-width="1px"></line><line x1="50" y1="50.57142857142859" x2="45" y2="50.57142857142859" style="visibility: inherit;" fill="rgb(0, 0, 0)" stroke="rgb(204, 204, 204)" stroke-width="1px"></line><line x1="50" y1="37.92857142857143" x2="45" y2="37.92857142857143" style="visibility: inherit;" fill="rgb(0, 0, 0)" stroke="rgb(204, 204, 204)" stroke-width="1px"></line><line x1="50" y1="25.285714285714295" x2="45" y2="25.285714285714295" style="visibility: inherit;" fill="rgb(0, 0, 0)" stroke="rgb(204, 204, 204)" stroke-width="1px"></line><line x1="50" y1="12.642857142857157" x2="45" y2="12.642857142857157" style="visibility: inherit;" fill="rgb(0, 0, 0)" stroke="rgb(204, 204, 204)" stroke-width="1px"></line><line x1="50" y1="0" x2="45" y2="0" style="visibility: inherit;" fill="rgb(0, 0, 0)" stroke="rgb(204, 204, 204)" stroke-width="1px"></line></g><g transform="translate(40, 0)"><text x="0" y="177" dx="0em" dy="0.3em" style="text-anchor: end; visibility: hidden; font-family: Roboto, sans-serif; font-size: 12px; font-weight: 200;" fill="rgb(33, 33, 33)" stroke="none" stroke-width="1px">0.02</text><text x="0" y="164.35714285714286" dx="0em" dy="0.3em" style="text-anchor: end; visibility: inherit; font-family: Roboto, sans-serif; font-size: 12px; font-weight: 200;" fill="rgb(33, 33, 33)" stroke="none" stroke-width="1px">0.03</text><text x="0" y="151.71428571428572" dx="0em" dy="0.3em" style="text-anchor: end; visibility: hidden; font-family: Roboto, sans-serif; font-size: 12px; font-weight: 200;" fill="rgb(33, 33, 33)" stroke="none" stroke-width="1px">0.04</text><text x="0" y="139.07142857142856" dx="0em" dy="0.3em" style="text-anchor: end; visibility: inherit; font-family: Roboto, sans-serif; font-size: 12px; font-weight: 200;" fill="rgb(33, 33, 33)" stroke="none" stroke-width="1px">0.05</text><text x="0" y="126.42857142857144" dx="0em" dy="0.3em" style="text-anchor: end; visibility: hidden; font-family: Roboto, sans-serif; font-size: 12px; font-weight: 200;" fill="rgb(33, 33, 33)" stroke="none" stroke-width="1px">0.06</text><text x="0" y="113.78571428571428" dx="0em" dy="0.3em" style="text-anchor: end; visibility: inherit; font-family: Roboto, sans-serif; font-size: 12px; font-weight: 200;" fill="rgb(33, 33, 33)" stroke="none" stroke-width="1px">0.07</text><text x="0" y="101.14285714285715" dx="0em" dy="0.3em" style="text-anchor: end; visibility: hidden; font-family: Roboto, sans-serif; font-size: 12px; font-weight: 200;" fill="rgb(33, 33, 33)" stroke="none" stroke-width="1px">0.08</text><text x="0" y="88.50000000000001" dx="0em" dy="0.3em" style="text-anchor: end; visibility: inherit; font-family: Roboto, sans-serif; font-size: 12px; font-weight: 200;" fill="rgb(33, 33, 33)" stroke="none" stroke-width="1px">0.09</text><text x="0" y="75.85714285714286" dx="0em" dy="0.3em" style="text-anchor: end; visibility: hidden; font-family: Roboto, sans-serif; font-size: 12px; font-weight: 200;" fill="rgb(33, 33, 33)" stroke="none" stroke-width="1px">0.1</text><text x="0" y="63.21428571428572" dx="0em" dy="0.3em" style="text-anchor: end; visibility: inherit; font-family: Roboto, sans-serif; font-size: 12px; font-weight: 200;" fill="rgb(33, 33, 33)" stroke="none" stroke-width="1px">0.11</text><text x="0" y="50.57142857142859" dx="0em" dy="0.3em" style="text-anchor: end; visibility: hidden; font-family: Roboto, sans-serif; font-size: 12px; font-weight: 200;" fill="rgb(33, 33, 33)" stroke="none" stroke-width="1px">0.12</text><text x="0" y="37.92857142857143" dx="0em" dy="0.3em" style="text-anchor: end; visibility: inherit; font-family: Roboto, sans-serif; font-size: 12px; font-weight: 200;" fill="rgb(33, 33, 33)" stroke="none" stroke-width="1px">0.13</text><text x="0" y="25.285714285714295" dx="0em" dy="0.3em" style="text-anchor: end; visibility: hidden; font-family: Roboto, sans-serif; font-size: 12px; font-weight: 200;" fill="rgb(33, 33, 33)" stroke="none" stroke-width="1px">0.14</text><text x="0" y="12.642857142857157" dx="0em" dy="0.3em" style="text-anchor: end; visibility: inherit; font-family: Roboto, sans-serif; font-size: 12px; font-weight: 200;" fill="rgb(33, 33, 33)" stroke="none" stroke-width="1px">0.15</text><text x="0" y="0" dx="0em" dy="0.3em" style="text-anchor: end; visibility: hidden; font-family: Roboto, sans-serif; font-size: 12px; font-weight: 200;" fill="rgb(33, 33, 33)" stroke="none" stroke-width="1px">0.16</text></g><line x1="50" y1="0" x2="50" y2="177" fill="rgb(0, 0, 0)" stroke="rgb(204, 204, 204)" stroke-width="1px"></line></g></g><g transform="translate(50, 0)" clip-path="url(#clip_0)"><clipPath id="clip_0"><rect width="280" height="177"></rect></clipPath><g><g><g><line x1="0" y1="0" x2="0" y2="177" fill="rgb(0, 0, 0)" stroke="rgb(66, 66, 66)" stroke-width="1px" opacity="0.25"></line><line x1="28" y1="0" x2="28" y2="177" fill="rgb(0, 0, 0)" stroke="rgb(66, 66, 66)" stroke-width="1px" opacity="0.25"></line><line x1="56" y1="0" x2="56" y2="177" fill="rgb(0, 0, 0)" stroke="rgb(66, 66, 66)" stroke-width="1px" opacity="0.25"></line><line x1="84" y1="0" x2="84" y2="177" fill="rgb(0, 0, 0)" stroke="rgb(66, 66, 66)" stroke-width="1px" opacity="0.25"></line><line x1="112" y1="0" x2="112" y2="177" fill="rgb(0, 0, 0)" stroke="rgb(66, 66, 66)" stroke-width="1px" opacity="0.25"></line><line x1="140" y1="0" x2="140" y2="177" fill="rgb(0, 0, 0)" stroke="rgb(66, 66, 66)" stroke-width="1px" opacity="0.25"></line><line x1="168" y1="0" x2="168" y2="177" fill="rgb(0, 0, 0)" stroke="rgb(66, 66, 66)" stroke-width="1px" opacity="0.25"></line><line x1="196" y1="0" x2="196" y2="177" fill="rgb(0, 0, 0)" stroke="rgb(66, 66, 66)" stroke-width="1px" opacity="0.25"></line><line x1="224" y1="0" x2="224" y2="177" fill="rgb(0, 0, 0)" stroke="rgb(66, 66, 66)" stroke-width="1px" opacity="0.25"></line><line x1="252" y1="0" x2="252" y2="177" fill="rgb(0, 0, 0)" stroke="rgb(66, 66, 66)" stroke-width="1px" opacity="0.25"></line><line x1="280" y1="0" x2="280" y2="177" fill="rgb(0, 0, 0)" stroke="rgb(66, 66, 66)" stroke-width="1px" opacity="0.25"></line></g><g><line x1="0" y1="177" x2="280" y2="177" fill="rgb(0, 0, 0)" stroke="rgb(66, 66, 66)" stroke-width="1px" opacity="0.25"></line><line x1="0" y1="164.35714285714286" x2="280" y2="164.35714285714286" fill="rgb(0, 0, 0)" stroke="rgb(66, 66, 66)" stroke-width="1px" opacity="0.25"></line><line x1="0" y1="151.71428571428572" x2="280" y2="151.71428571428572" fill="rgb(0, 0, 0)" stroke="rgb(66, 66, 66)" stroke-width="1px" opacity="0.25"></line><line x1="0" y1="139.07142857142856" x2="280" y2="139.07142857142856" fill="rgb(0, 0, 0)" stroke="rgb(66, 66, 66)" stroke-width="1px" opacity="0.25"></line><line x1="0" y1="126.42857142857144" x2="280" y2="126.42857142857144" fill="rgb(0, 0, 0)" stroke="rgb(66, 66, 66)" stroke-width="1px" opacity="0.25"></line><line x1="0" y1="113.78571428571428" x2="280" y2="113.78571428571428" fill="rgb(0, 0, 0)" stroke="rgb(66, 66, 66)" stroke-width="1px" opacity="0.25"></line><line x1="0" y1="101.14285714285715" x2="280" y2="101.14285714285715" fill="rgb(0, 0, 0)" stroke="rgb(66, 66, 66)" stroke-width="1px" opacity="0.25"></line><line x1="0" y1="88.50000000000001" x2="280" y2="88.50000000000001" fill="rgb(0, 0, 0)" stroke="rgb(66, 66, 66)" stroke-width="1px" opacity="0.25"></line><line x1="0" y1="75.85714285714286" x2="280" y2="75.85714285714286" fill="rgb(0, 0, 0)" stroke="rgb(66, 66, 66)" stroke-width="1px" opacity="0.25"></line><line x1="0" y1="63.21428571428572" x2="280" y2="63.21428571428572" fill="rgb(0, 0, 0)" stroke="rgb(66, 66, 66)" stroke-width="1px" opacity="0.25"></line><line x1="0" y1="50.57142857142859" x2="280" y2="50.57142857142859" fill="rgb(0, 0, 0)" stroke="rgb(66, 66, 66)" stroke-width="1px" opacity="0.25"></line><line x1="0" y1="37.92857142857143" x2="280" y2="37.92857142857143" fill="rgb(0, 0, 0)" stroke="rgb(66, 66, 66)" stroke-width="1px" opacity="0.25"></line><line x1="0" y1="25.285714285714295" x2="280" y2="25.285714285714295" fill="rgb(0, 0, 0)" stroke="rgb(66, 66, 66)" stroke-width="1px" opacity="0.25"></line><line x1="0" y1="12.642857142857157" x2="280" y2="12.642857142857157" fill="rgb(0, 0, 0)" stroke="rgb(66, 66, 66)" stroke-width="1px" opacity="0.25"></line><line x1="0" y1="0" x2="280" y2="0" fill="rgb(0, 0, 0)" stroke="rgb(66, 66, 66)" stroke-width="1px" opacity="0.25"></line></g></g></g><g><g><line x1="0" y1="202.28571428571428" x2="280" y2="202.28571428571428" fill="rgb(0, 0, 0)" stroke="rgb(153, 153, 153)" stroke-width="1.5px"></line></g></g><g><g><line x1="28" y1="0" x2="28" y2="177" fill="rgb(0, 0, 0)" stroke="rgb(153, 153, 153)" stroke-width="1.5px"></line></g></g><g><g><g><g><g><path stroke="rgb(255, 112, 67)" stroke-width="2px" d="M37.52,-4.163130846021975L38.080000000000005,5.623921447174627L38.64,4.75939179355653L39.2,8.677840002120357L39.76,13.975849707925963L40.32,16.037349242897076L40.879999999999995,24.965266001561673L41.44,18.55421702909887L42,21.974927596738116L42.56,16.09620433686123L43.12,22.92470072275047L43.68,34.264286985582096L44.24,41.704475909393324L44.800000000000004,25.151296000171683L45.36,42.67758998066775L45.92,35.651909518978805L46.480000000000004,35.312240805856334L47.040000000000006,56.074608426653L47.6,50.77675930942499L48.16,57.944151505247774L48.72,51.42588943048594L49.279999999999994,58.23016395509413L49.839999999999996,50.15398260972335L50.4,42.42045393246355L50.96,49.76134126145518L51.519999999999996,54.73514908136906L52.08,60.34303588183905L52.64,60.983658051248646L53.2,46.21030213426347L53.76,49.65521793551777L54.32,48.39059100053752L54.88,62.83740347870355L55.440000000000005,66.97181865385821L56,68.12082512693102L56.56,60.43212486894785L57.12,62.08960048994738L57.68,48.00001463929272L58.239999999999995,55.622047735525534L58.8,65.614523833393L59.36,62.53849761041392L59.92,69.28201660383473L60.48,64.84856655604533L61.04,74.40935203164746L61.6,83.82056557715795L62.160000000000004,88.92939329067826L62.72,86.79482515662029L63.28,90.25669977585234L63.84,99.97252285279409L64.4,93.11532119987949L64.96000000000001,88.7682893272381L65.52000000000001,92.56300673887552L66.08,84.53495612828897L66.64,92.09790227806806L67.2,92.55255142277791L67.75999999999999,89.499815685395L68.32,77.68379908969617L68.88,75.12633545841004L69.44,81.55455806810227L70,84.20236490173848L70.56,84.53671542493446L71.12,97.06015097483193L71.68,82.28549706143086L72.24000000000001,91.35239646214556L72.8,96.80825940340603L73.36,88.57767509561684L73.92,94.55177380697502L74.48,97.82615281206881L75.04,104.8524585267796L75.60000000000001,102.35347314141698L76.16000000000001,107.34933113901747L76.72,106.3401886777729L77.28,102.34345887470715L77.84,104.03429306794857L78.4,103.73093003438846L78.96,94.42555074167983L79.52,97.92448680222813L80.08,107.6846226652567L80.64,101.19904715760036L81.19999999999999,101.49852482046774L81.75999999999999,107.08573452656834L82.32,108.57341176116259L82.88,105.96743860407092L83.44,99.87555914175847L84,101.67920884095462L84.56,95.16015293361447L85.12,90.32351635961184L85.67999999999999,99.8204177749831L86.24,93.64898494591671L86.8,97.3454284803974L87.36,106.82132173315416L87.92,104.86778636076629L88.48,111.70085237204184L89.04,122.29093183104827L89.60000000000001,117.08647888232336L90.16,115.63190125423114L90.72,111.52655254090011L91.28,118.30515327495273L91.84,126.22660416457785L92.4,127.44189968122427L92.96000000000001,119.78609461179263L93.52000000000001,121.83716245134917L94.08000000000001,121.61064163487447L94.64,127.62123608886263L95.2,126.65659786257868L95.76,121.13317215524066L96.32,121.4308678231696L96.88,124.14032061188918L97.44,112.64466413346915L98,113.06740686588277L98.55999999999999,108.28697757299419L99.11999999999999,115.1259253460422L99.67999999999999,98.28802570843514L100.24,96.25448541982405L100.8,108.23846374154435L101.36,112.05526639172216L101.92,113.90372405566612L102.48,92.9608899608892L103.03999999999999,98.72983181212197L103.6,108.04457526984977L104.16,108.68364108893034L104.72,112.58430347446827L105.28,116.67979505081651L105.84,115.90385485882227L106.4,120.01384475900672L106.96000000000001,124.23066762091226L107.52,118.33757657494763L108.08,99.28179539936468L108.64,112.05433136896049L109.2,101.77463153492579L109.76,104.96921400124532L110.32000000000001,109.75884754169236L110.88000000000001,112.46342415039688L111.44000000000001,109.32080424681277L112,113.14585378083572L112.56,119.70478797911821L113.12,115.3678761496838L113.68,119.09350986713062L114.24,118.46419925948315L114.8,125.36850191629134L115.36,119.53888986479676L115.91999999999999,124.01502905300688L116.47999999999999,111.71063450411391L117.03999999999999,119.75623521085129L117.6,123.0349484674665L118.16,103.3343111408415L118.72,108.98921523288861L119.28,101.55985456328038L119.84,105.16433146199422L120.39999999999999,115.60999445421854L120.96,123.09656976173906L121.52,131.523765511661L122.08,124.14863394425976L122.64,127.26246140351185L123.2,137.19729537636215L123.76,134.68847597972942L124.32000000000001,134.63546459279294L124.88,134.4030792328399L125.44,138.9487018422465L126,139.70925927420396L126.56,136.69763002295116L127.12,135.64759583642802L127.68,143.69081821918064L128.24,137.55407482782178L128.8,140.84050679998245L129.36,142.18211331331435L129.92000000000002,136.20095823070488L130.48000000000002,124.26563966787506L131.04000000000002,130.24888311421574L131.6,132.36434678620094L132.16,122.73507534751037L132.72,125.95781736844027L133.28,126.84977411960934L133.84,129.4156409201006L134.4,133.6528299168081L134.96,133.51265135881997L135.51999999999998,134.9580770120824L136.07999999999998,128.23603834510388L136.64,130.54855360482745L137.2,136.64915515377035L137.76,142.65524379718082L138.32,146.9662684309946L138.88,144.46210002609035L139.44,141.354251098595L140,143.82278058858714L140.56,147.07885472819126L141.12,147.79513798306192L141.68,148.16204299164554L142.24,148.80864803401843L142.8,149.09744838719496L143.36,149.8471705044291L143.92000000000002,150.6405351023578L144.48000000000002,146.67569160142048L145.04,144.75686066214487L145.6,137.8466554318579L146.16,137.05347250396L146.72,136.3994840255447L147.28,138.49014037802795L147.84,139.9206065230581L148.4,144.44264137575533L148.96,147.53009229541382L149.52,144.22557450531545L150.08,147.40095804154052L150.64000000000001,137.74296263638072L151.20000000000002,142.71060279435815L151.76000000000002,144.5676905419046L152.32000000000002,146.4136701178491L152.88000000000002,148.34485852815064L153.44,149.05544242916915L154,146.5457649427728L154.56,141.36478100237278L155.12,133.8165755417681L155.68,132.81185889735522L156.24,143.63082950708093L156.8,138.89008560289463L157.36,138.74596075378713L157.92,144.5320332047258L158.48,145.43045092164107L159.04,143.12797366403717L159.6,149.47701602174743L160.16,146.28538458428838L160.72,148.06895900511267L161.28,147.03482450349387L161.83999999999997,137.12134550990615L162.39999999999998,139.60028986707218L162.95999999999998,145.17331645150202L163.51999999999998,147.29942058947643L164.07999999999998,155.5947889723852L164.64,152.83314488844636L165.2,153.58964366922714L165.76,152.40605704824375L166.32,150.77624457553603L166.88,156.48340687056017L167.44,158.8227682312024L168,159.45543464505542L168.56,155.41846177568357L169.12,154.05933219418546L169.68,145.4565044442069L170.24,149.68964959506275L170.79999999999998,147.773535144132L171.35999999999999,148.7769488996788L171.92,152.30239886424943L172.48,152.12345537983862L173.04,155.7755482270074L173.6,154.02232586840447L174.16,153.36196782801628L174.72,144.17374888683946L175.28,151.28863259415894L175.84,157.07443934792067L176.4,157.07897512937996L176.96,157.33835226150742L177.52,159.04539885688402L178.08,154.1596212233646L178.64000000000001,148.32575689570226L179.20000000000002,148.86114956626963L179.76,139.0429774402105L180.32,141.64728166801302L180.88,147.51238929927177L181.44,143.0425080255941L182,144.3259991222103L182.56,152.58251193586722L183.12,149.56455161994367L183.68,148.51354092553657L184.24,143.64280714338832L184.8,146.00660805848725L185.36,149.6437485376702L185.92000000000002,151.57197510487646L186.48000000000002,156.9501369157073L187.04000000000002,152.8075251631265L187.60000000000002,151.39965982706443L188.16000000000003,157.0244656976186L188.72,153.68058552684835L189.28,155.55481554473906L189.84,153.39803104003693L190.4,151.8921629912538L190.96,147.62304192515936L191.52,145.4660985803L192.08,145.6451433147511L192.64,150.4008778769514L193.2,152.34339579319263L193.76,145.9715298964527L194.32,150.59379915022532L194.88,151.5991295928323L195.44,155.3767843015019L196,158.25101130280467L196.56,161.6397334267114L197.11999999999998,159.26439787069305L197.67999999999998,157.19154198240844L198.23999999999998,161.83195069125827L198.79999999999998,157.9360933447231L199.35999999999999,150.2967689340493L199.92,152.91788801326297L200.48,155.51762672187397L201.04,146.88561918901593L201.6,151.44877796681465L202.16,149.24487331610254L202.72,147.46173381823243L203.28,150.6068608966262L203.84,151.38150701605878L204.4,157.55962054902758L204.96,160.2370796796008L205.51999999999998,159.40963208483174L206.07999999999998,163.52681536878487L206.64,159.15496594977157L207.2,161.2363259323175L207.76,165.97865269924185L208.32,163.244553696611L208.88,163.67828327889862L209.44,162.89370900676025L210,159.86553546402934L210.56,153.82722649429405L211.12,157.8998680908162L211.68,159.82189198171028L212.24,164.97869182407388L212.8,167.37349459780685L213.36,166.0505865546414L213.92000000000002,163.71310785733326L214.48000000000002,166.58271928132316L215.04,163.80737059287105L215.6,163.93277047877066L216.16,162.13017900341907L216.72,156.92811516427918L217.28,156.93552925248443L217.84,156.0286366513086L218.4,161.3489164562735L218.96,157.2944465212481L219.52,159.93415585417574L220.08,163.59601271817783L220.64000000000001,161.17728492420736L221.20000000000002,162.43622459225378L221.76000000000002,163.55602948773557L222.32000000000002,164.73675129572032L222.88000000000002,163.20983627295183L223.44,162.66463545687694L224,166.4541185290421L224.56,162.2148539456779L225.12,165.52078039609006L225.68,166.115260067487L226.24,162.48526123722363L226.8,161.28546187445076L227.36,164.76048864799046L227.92,166.17072058715235L228.48,161.3681631364862L229.04,160.06482719905958L229.6,162.08071505337483L230.16,165.75062501955603L230.72,163.1069043906246L231.28,168.88138006156686L231.83999999999997,166.20347615793943L232.39999999999998,166.23079377392293L232.95999999999998,167.1090910082251L233.51999999999998,161.6240064234932L234.07999999999998,165.45927990798268L234.64,164.41596547132627L235.2,160.80349161757852L235.76,164.26142793317928L236.32,165.5290734673756L236.88,166.7879430427L237.44,168.0289576636205L238,170.20530617092464L238.56,169.53542770337282L239.12,166.42886586592752L239.68,172.7673910502818L240.24,168.43198831174703L240.79999999999998,170.0098704151235L241.35999999999999,167.89503035471654L241.92,166.60386294588932L242.48,170.1313126925983L243.04,169.37803428565184L243.6,167.83124528920058L244.16,164.3539107013326L244.72,164.17573389692026L245.28,166.54774013798612L245.84,167.06172319458065L246.4,168.51191272219842L246.96,168.79102456094176L247.52,172.16289509866874L248.08,171.96505219658755L248.64000000000001,171.91292180478047L249.20000000000002,171.6403297109402L249.76,172.81988175797443L250.32,167.6235427248613L250.88,166.78485964274367L251.44,168.14857040516114L252,168.13839970567486" style="fill: none;" fill="none"></path></g></g></g></g><g opacity="0.2"><g><g><g><path stroke="rgb(255, 112, 67)" stroke-width="2px" d="M35.84,-44.670315142188734L36.4,13.286627028669628L36.96,-0.3838655693190214L37.52,6.735666147300181L38.080000000000005,20.302014955452524L38.64,3.462729015520635L39.2,14.55515415327889L39.76,21.92257371119093L40.32,19.129530710833425L40.879999999999995,38.35696487341609L41.44,8.937719515391764L42,27.10596913525038L42.56,7.278144517115178L43.12,33.16742782933374L43.68,51.27364897089347L44.24,52.86475244164469L44.800000000000004,0.3215352850300953L45.36,68.96702513950213L45.92,25.113390224320575L46.480000000000004,34.802737776722246L47.040000000000006,87.21815837068218L47.6,42.82998586126738L48.16,68.69523961416314L48.72,41.64849641919138L49.279999999999994,68.43657567884242L49.839999999999996,38.039710636649836L50.4,30.820160942418262L50.96,60.77267224022322L51.519999999999996,62.19586080525603L52.08,68.754866078496L52.64,61.944591305085616L53.2,24.050268262624762L53.76,54.82259163686209L54.32,46.49365059818541L54.88,84.50762219514166L55.440000000000005,73.17344141645091L56,69.84433483651708L56.56,48.8990744820663L57.12,64.57581392143454L57.68,26.865635863372283L58.239999999999995,67.05509737985476L58.8,80.60323798017843L59.36,57.924458275948275L59.92,79.39729509396213L60.48,58.198391484362745L61.04,88.75053024504867L61.6,97.93738589542254L62.160000000000004,96.59263486095838L62.72,83.59297295553344L63.28,95.44951170470034L63.84,114.54625746820655L64.4,82.82951872050764L64.96000000000001,82.24774151827609L65.52000000000001,98.25508285633157L66.08,72.49288021240916L66.64,103.44232150273665L67.2,93.23452513984273L67.75999999999999,84.92071207932065L68.32,59.95977419614794L68.88,71.29014001148089L69.44,91.19689198264055L70,88.17407515219281L70.56,85.03824120972838L71.12,115.84530429967813L71.68,60.123516191329294L72.24000000000001,104.95274556321758L72.8,104.99205381529673L73.36,76.23179863393308L73.92,103.51292187401228L74.48,102.73772131970952L75.04,115.39191709884577L75.60000000000001,98.60499506337302L76.16000000000001,114.84311813541822L76.72,104.82647498590606L77.28,96.34836417010854L77.84,106.57054435781072L78.4,103.2758854840483L78.96,80.46748180261682L79.52,103.1728908930506L80.08,122.32482645979951L80.64,91.47068389611586L81.19999999999999,101.94774131476879L81.75999999999999,115.46654908571925L82.32,110.80492761305402L82.88,102.05847886843341L83.44,90.73773994828974L84,104.38468338974886L84.56,85.3815690726042L85.12,83.06856149860792L85.67999999999999,114.06576989803996L86.24,84.39183570231711L86.8,102.8900937821184L87.36,121.0351616122893L87.92,101.93748330218452L88.48,121.95045138895512L89.04,138.1760510195579L89.60000000000001,109.27979945923602L90.16,113.45003481209278L90.72,105.36852947090354L91.28,128.47305437603168L91.84,138.10878049901555L92.4,129.26484295619386L92.96000000000001,108.30238700764521L93.52000000000001,124.91376421068396L94.08000000000001,121.27086041016238L94.64,136.63712776984488L95.2,125.2096405231527L95.76,112.84803359423366L96.32,121.87741132506304L96.88,128.20449979496854L97.44,95.40117941583907L98,113.70152096450329L98.55999999999999,101.11633363366127L99.11999999999999,125.38434700561422L99.67999999999999,73.03117625202452L100.24,93.20417498690742L100.8,126.21443122412478L101.36,117.78047036698888L101.92,116.67641055158208L102.48,61.54663881872382L103.03999999999999,107.38324458897114L103.6,122.01669045644148L104.16,109.64223981755121L104.72,118.43529705277513L105.28,122.82303241533893L105.84,114.7399445708309L106.4,126.17882960928338L106.96000000000001,130.5559019137706L107.52,109.49794000600066L108.08,70.69812363599029L108.64,131.21313532335418L109.2,86.3550817838737L109.76,109.7610877007246L110.32000000000001,116.94329785236292L110.88000000000001,116.52028906345367L111.44000000000001,104.60687439143658L112,118.88342808187008L112.56,129.543189276542L113.12,108.86250840553217L113.68,124.68196044330087L114.24,117.52023334801197L114.8,135.72495590150356L115.36,110.79447178755488L115.91999999999999,130.72923783532212L116.47999999999999,93.25404268077443L117.03999999999999,131.82463627095734L117.6,127.95301835238934L118.16,73.78335515090399L118.72,117.47157137095928L119.28,90.41581355886801L119.84,110.57104681006501L120.39999999999999,131.27848894255504L120.96,134.32643272301982L121.52,144.16455913654397L122.08,113.08593659315791L122.64,131.93320259238993L123.2,152.09954633563757L123.76,130.92524688478028L124.32000000000001,134.55594751238823L124.88,134.05450119291035L125.44,145.7671357563564L126,140.85009542214019L126.56,132.180186146072L127.12,134.0725445566433L127.68,155.75565179330962L128.24,128.3489597407835L128.8,145.77015475822347L129.36,144.1945230833122L129.92000000000002,127.22922560679062L130.48000000000002,106.36266182363033L131.04000000000002,139.22374828372685L131.6,135.5375422941787L132.16,108.29116818947452L132.72,130.7919303998351L133.28,128.18770924636297L133.84,133.26444112083743L134.4,140.0086134118693L134.96,133.30238352183787L135.51999999999998,137.12621549197607L136.07999999999998,118.1529803446361L136.64,134.01732649441277L137.2,145.8000574771847L137.76,151.66437676229646L138.32,153.4328053817153L138.88,140.705847418734L139.44,136.69247770735197L140,147.52557482357537L140.56,151.96296593759743L141.12,148.86956286536795L141.68,148.71240050452096L142.24,149.7785555975778L142.8,149.53064891695976L143.36,150.97175368028027L143.92000000000002,151.83058199925082L144.48000000000002,140.72842635001456L145.04,141.87861425323146L145.6,127.48134758642743L146.16,135.86369811211316L146.72,135.41850130792176L147.28,141.6261249067528L147.84,142.06630574060338L148.4,151.22569365480115L148.96,152.16126867490155L149.52,139.2687978201679L150.08,152.16403334587812L150.64000000000001,123.25596952864103L151.20000000000002,150.16206303132432L151.76000000000002,147.35332216322422L152.32000000000002,149.1826394817659L152.88000000000002,151.241641143603L153.44,150.12131828069687L154,142.78124871317831L154.56,133.59330509177278L155.12,122.49426735086101L155.68,131.30478393073594L156.24,159.85928542166948L156.8,131.77896974661522L157.36,138.52977348012584L157.92,153.2111418811338L158.48,146.77807749701398L159.04,139.67425777763128L159.6,159.0005795583129L160.16,141.4979374280998L160.72,150.74432063634907L161.28,145.48362275106567L161.83999999999997,122.25112701952457L162.39999999999998,143.31870640282122L162.95999999999998,153.5328563281468L163.51999999999998,150.488576796438L164.07999999999998,168.03784154674838L164.64,148.6906787625381L165.2,154.7243918403983L165.76,150.6306771167687L166.32,148.3315258664744L166.88,165.0441503130964L167.44,162.3318102721657L168,160.40443426583496L168.56,149.3630024716258L169.12,152.0206378219383L169.68,132.55226281923908L170.24,156.0393673213465L170.79999999999998,144.89936346773592L171.35999999999999,150.28206953299897L171.92,157.59057381110532L172.48,151.85504015322243L173.04,161.25368749776055L173.6,151.39249233050006L174.16,152.371430767434L174.72,130.39142047507423L175.28,161.96095815513817L175.84,165.75314947856324L176.4,157.08577880156892L176.96,157.7274179596986L177.52,161.60596874994891L178.08,146.83095477308547L178.64000000000001,139.57496040420872L179.20000000000002,149.66423857212067L179.76,124.3157192511218L180.32,145.55373800971677L180.88,156.3100507461599L181.44,136.3376861150776L182,146.2512357671346L182.56,164.96728115635258L183.12,145.03761114605834L183.68,146.93702488392591L184.24,136.33670647016595L184.8,149.55230943113565L185.36,155.09945925644467L185.92000000000002,154.46431495568584L186.48000000000002,165.0173796319536L187.04000000000002,146.59360753425528L187.60000000000002,149.28786182297128L188.16000000000003,165.4616745034499L188.72,148.66476527069298L189.28,158.36616057157516L189.84,150.16285428298372L190.4,149.63336091807912L190.96,141.21936032601764L191.52,142.23068356301104L192.08,145.91371041642768L192.64,157.5344797202519L193.2,155.25717266755444L193.76,136.41373105134284L194.32,157.52720303088427L194.88,153.10712525674273L195.44,161.0432663645063L196,162.5623518047588L196.56,166.72281661257148L197.11999999999998,155.7013945366655L197.67999999999998,154.0822581499815L198.23999999999998,168.79256375453303L198.79999999999998,152.0923073249204L199.35999999999999,138.83778231803862L199.92,156.84956663208348L200.48,159.41723478479045L201.04,133.9376078897289L201.6,158.29351613351275L202.16,145.93901634003436L202.72,144.78702457142728L203.28,155.32455151421684L203.84,152.54347619520766L204.4,166.8267908484808L204.96,164.2532683754606L205.51999999999998,158.1684606926782L206.07999999999998,169.70259029471447L206.64,152.5971918212516L207.2,164.35836590613638L207.76,173.09214284962843L208.32,159.1434051926647L208.88,164.32887765233008L209.44,161.7168475985527L210,155.32327514993293L210.56,144.76976303969113L211.12,164.0088304855994L211.68,162.7049278180514L212.24,172.7138915876193L212.8,170.96569875840632L213.36,164.06622448989322L213.92000000000002,160.20688981137107L214.48000000000002,170.88713641730803L215.04,159.64434756019284L215.6,164.12087030762007L216.16,159.4262917903917L216.72,149.12501940556933L217.28,156.94665038479226L217.84,154.66829774954488L218.4,169.3293361637209L218.96,151.2127416187099L219.52,163.89371985356723L220.08,169.088798014181L220.64000000000001,157.54919323325157L221.20000000000002,164.32463409432341L221.76000000000002,165.2357368309583L222.32000000000002,166.50783400769745L222.88000000000002,160.9194637387991L223.44,161.8468342327646L224,172.13834313728978L224.56,155.85595707063166L225.12,170.4796700717083L225.68,167.0069795745824L226.24,157.0402629918286L226.8,159.4857628302915L227.36,169.9730288083L227.92,168.28606849589517L228.48,154.16432696048705L229.04,158.10982329291957L229.6,165.10454683484775L230.16,171.2554899688278L230.72,159.14132344722748L231.28,177.54309356798018L231.83999999999997,162.18662030249834L232.39999999999998,166.27177019789815L232.95999999999998,168.42653685967838L233.51999999999998,153.39637954639537L234.07999999999998,171.2121901347169L234.64,162.85099381634166L235.2,155.38478083695685L235.76,169.44833240658045L236.32,167.43054176867008L236.88,168.67624740568655L237.44,169.89047959500124L238,173.46982893188087L238.56,168.53061000204514L239.12,161.7690231097596L239.68,182.27517882681317L240.24,161.9288842039449L240.79999999999998,172.3766935701881L241.35999999999999,164.72277026410615L241.92,164.66711183264852L242.48,175.42248731266173L243.04,168.24811667523215L243.6,165.5110617945237L244.16,159.1379088195307L244.72,163.90846869030167L245.28,170.10574949958493L245.84,167.83269777947237L246.4,170.68719701362508L246.96,169.2096923190568L247.52,177.22070090525918L248.08,171.6682878434658L248.64000000000001,171.8347262170698L249.20000000000002,171.2314415701798L249.76,174.58920982852578L250.32,159.82903417519162L250.88,165.5268350195672L251.44,170.19413654878736L252,168.12314365644542" style="fill: none;" fill="none"></path></g></g></g></g></g></g><g transform="translate(50, 177)" clip-path="url(#clip_1)"><clipPath id="clip_1"><rect width="280" height="23"></rect></clipPath><g><g><line x1="0" y1="0" x2="0" y2="5" style="visibility: inherit;" fill="rgb(0, 0, 0)" stroke="rgb(204, 204, 204)" stroke-width="1px"></line><line x1="28" y1="0" x2="28" y2="5" style="visibility: inherit;" fill="rgb(0, 0, 0)" stroke="rgb(204, 204, 204)" stroke-width="1px"></line><line x1="56" y1="0" x2="56" y2="5" style="visibility: inherit;" fill="rgb(0, 0, 0)" stroke="rgb(204, 204, 204)" stroke-width="1px"></line><line x1="84" y1="0" x2="84" y2="5" style="visibility: inherit;" fill="rgb(0, 0, 0)" stroke="rgb(204, 204, 204)" stroke-width="1px"></line><line x1="112" y1="0" x2="112" y2="5" style="visibility: inherit;" fill="rgb(0, 0, 0)" stroke="rgb(204, 204, 204)" stroke-width="1px"></line><line x1="140" y1="0" x2="140" y2="5" style="visibility: inherit;" fill="rgb(0, 0, 0)" stroke="rgb(204, 204, 204)" stroke-width="1px"></line><line x1="168" y1="0" x2="168" y2="5" style="visibility: inherit;" fill="rgb(0, 0, 0)" stroke="rgb(204, 204, 204)" stroke-width="1px"></line><line x1="196" y1="0" x2="196" y2="5" style="visibility: inherit;" fill="rgb(0, 0, 0)" stroke="rgb(204, 204, 204)" stroke-width="1px"></line><line x1="224" y1="0" x2="224" y2="5" style="visibility: inherit;" fill="rgb(0, 0, 0)" stroke="rgb(204, 204, 204)" stroke-width="1px"></line><line x1="252" y1="0" x2="252" y2="5" style="visibility: inherit;" fill="rgb(0, 0, 0)" stroke="rgb(204, 204, 204)" stroke-width="1px"></line><line x1="280" y1="0" x2="280" y2="5" style="visibility: inherit;" fill="rgb(0, 0, 0)" stroke="rgb(204, 204, 204)" stroke-width="1px"></line></g><g transform="translate(0, 8)"><text x="0" y="0" dx="0em" dy="0.95em" style="text-anchor: middle; visibility: hidden; font-family: Roboto, sans-serif; font-size: 12px; font-weight: 200;" fill="rgb(33, 33, 33)" stroke="none" stroke-width="1px">-5k</text><text x="28" y="0" dx="0em" dy="0.95em" style="text-anchor: middle; visibility: inherit; font-family: Roboto, sans-serif; font-size: 12px; font-weight: 200;" fill="rgb(33, 33, 33)" stroke="none" stroke-width="1px">0</text><text x="56" y="0" dx="0em" dy="0.95em" style="text-anchor: middle; visibility: inherit; font-family: Roboto, sans-serif; font-size: 12px; font-weight: 200;" fill="rgb(33, 33, 33)" stroke="none" stroke-width="1px">5k</text><text x="84" y="0" dx="0em" dy="0.95em" style="text-anchor: middle; visibility: inherit; font-family: Roboto, sans-serif; font-size: 12px; font-weight: 200;" fill="rgb(33, 33, 33)" stroke="none" stroke-width="1px">10k</text><text x="112" y="0" dx="0em" dy="0.95em" style="text-anchor: middle; visibility: inherit; font-family: Roboto, sans-serif; font-size: 12px; font-weight: 200;" fill="rgb(33, 33, 33)" stroke="none" stroke-width="1px">15k</text><text x="140" y="0" dx="0em" dy="0.95em" style="text-anchor: middle; visibility: inherit; font-family: Roboto, sans-serif; font-size: 12px; font-weight: 200;" fill="rgb(33, 33, 33)" stroke="none" stroke-width="1px">20k</text><text x="168" y="0" dx="0em" dy="0.95em" style="text-anchor: middle; visibility: inherit; font-family: Roboto, sans-serif; font-size: 12px; font-weight: 200;" fill="rgb(33, 33, 33)" stroke="none" stroke-width="1px">25k</text><text x="196" y="0" dx="0em" dy="0.95em" style="text-anchor: middle; visibility: inherit; font-family: Roboto, sans-serif; font-size: 12px; font-weight: 200;" fill="rgb(33, 33, 33)" stroke="none" stroke-width="1px">30k</text><text x="224" y="0" dx="0em" dy="0.95em" style="text-anchor: middle; visibility: inherit; font-family: Roboto, sans-serif; font-size: 12px; font-weight: 200;" fill="rgb(33, 33, 33)" stroke="none" stroke-width="1px">35k</text><text x="252" y="0" dx="0em" dy="0.95em" style="text-anchor: middle; visibility: inherit; font-family: Roboto, sans-serif; font-size: 12px; font-weight: 200;" fill="rgb(33, 33, 33)" stroke="none" stroke-width="1px">40k</text><text x="280" y="0" dx="0em" dy="0.95em" style="text-anchor: middle; visibility: hidden; font-family: Roboto, sans-serif; font-size: 12px; font-weight: 200;" fill="rgb(33, 33, 33)" stroke="none" stroke-width="1px">45k</text></g><line x1="0" y1="0" x2="280" y2="0" fill="rgb(0, 0, 0)" stroke="rgb(204, 204, 204)" stroke-width="1px"></line></g></g></g></g></svg>