<svg viewBox="0 0 330 200" xmlns="http://www.w3.org/2000/svg"><g><g><g><g><g><line x1="50" y1="177" x2="45" y2="177" style="visibility: inherit;" fill="rgb(0, 0, 0)" stroke="rgb(204, 204, 204)" stroke-width="1px"></line><line x1="50" y1="154.875" x2="45" y2="154.875" style="visibility: inherit;" fill="rgb(0, 0, 0)" stroke="rgb(204, 204, 204)" stroke-width="1px"></line><line x1="50" y1="132.75" x2="45" y2="132.75" style="visibility: inherit;" fill="rgb(0, 0, 0)" stroke="rgb(204, 204, 204)" stroke-width="1px"></line><line x1="50" y1="110.625" x2="45" y2="110.625" style="visibility: inherit;" fill="rgb(0, 0, 0)" stroke="rgb(204, 204, 204)" stroke-width="1px"></line><line x1="50" y1="88.5" x2="45" y2="88.5" style="visibility: inherit;" fill="rgb(0, 0, 0)" stroke="rgb(204, 204, 204)" stroke-width="1px"></line><line x1="50" y1="66.375" x2="45" y2="66.375" style="visibility: inherit;" fill="rgb(0, 0, 0)" stroke="rgb(204, 204, 204)" stroke-width="1px"></line><line x1="50" y1="44.25" x2="45" y2="44.25" style="visibility: inherit;" fill="rgb(0, 0, 0)" stroke="rgb(204, 204, 204)" stroke-width="1px"></line><line x1="50" y1="22.12499999999998" x2="45" y2="22.12499999999998" style="visibility: inherit;" fill="rgb(0, 0, 0)" stroke="rgb(204, 204, 204)" stroke-width="1px"></line><line x1="50" y1="0" x2="45" y2="0" style="visibility: inherit;" fill="rgb(0, 0, 0)" stroke="rgb(204, 204, 204)" stroke-width="1px"></line></g><g transform="translate(40, 0)"><text x="0" y="177" dx="0em" dy="0.3em" style="text-anchor: end; visibility: hidden; font-family: Roboto, sans-serif; font-size: 12px; font-weight: 200;" fill="rgb(33, 33, 33)" stroke="none" stroke-width="1px">0</text><text x="0" y="154.875" dx="0em" dy="0.3em" style="text-anchor: end; visibility: inherit; font-family: Roboto, sans-serif; font-size: 12px; font-weight: 200;" fill="rgb(33, 33, 33)" stroke="none" stroke-width="1px">0.01</text><text x="0" y="132.75" dx="0em" dy="0.3em" style="text-anchor: end; visibility: hidden; font-family: Roboto, sans-serif; font-size: 12px; font-weight: 200;" fill="rgb(33, 33, 33)" stroke="none" stroke-width="1px">0.02</text><text x="0" y="110.625" dx="0em" dy="0.3em" style="text-anchor: end; visibility: inherit; font-family: Roboto, sans-serif; font-size: 12px; font-weight: 200;" fill="rgb(33, 33, 33)" stroke="none" stroke-width="1px">0.03</text><text x="0" y="88.5" dx="0em" dy="0.3em" style="text-anchor: end; visibility: hidden; font-family: Roboto, sans-serif; font-size: 12px; font-weight: 200;" fill="rgb(33, 33, 33)" stroke="none" stroke-width="1px">0.04</text><text x="0" y="66.375" dx="0em" dy="0.3em" style="text-anchor: end; visibility: inherit; font-family: Roboto, sans-serif; font-size: 12px; font-weight: 200;" fill="rgb(33, 33, 33)" stroke="none" stroke-width="1px">0.05</text><text x="0" y="44.25" dx="0em" dy="0.3em" style="text-anchor: end; visibility: hidden; font-family: Roboto, sans-serif; font-size: 12px; font-weight: 200;" fill="rgb(33, 33, 33)" stroke="none" stroke-width="1px">0.06</text><text x="0" y="22.12499999999998" dx="0em" dy="0.3em" style="text-anchor: end; visibility: inherit; font-family: Roboto, sans-serif; font-size: 12px; font-weight: 200;" fill="rgb(33, 33, 33)" stroke="none" stroke-width="1px">0.07</text><text x="0" y="0" dx="0em" dy="0.3em" style="text-anchor: end; visibility: hidden; font-family: Roboto, sans-serif; font-size: 12px; font-weight: 200;" fill="rgb(33, 33, 33)" stroke="none" stroke-width="1px">0.08</text></g><line x1="50" y1="0" x2="50" y2="177" fill="rgb(0, 0, 0)" stroke="rgb(204, 204, 204)" stroke-width="1px"></line></g></g><g transform="translate(50, 0)" clip-path="url(#clip_0)"><clipPath id="clip_0"><rect width="280" height="177"></rect></clipPath><g><g><g><line x1="0" y1="0" x2="0" y2="177" fill="rgb(0, 0, 0)" stroke="rgb(66, 66, 66)" stroke-width="1px" opacity="0.25"></line><line x1="28" y1="0" x2="28" y2="177" fill="rgb(0, 0, 0)" stroke="rgb(66, 66, 66)" stroke-width="1px" opacity="0.25"></line><line x1="56" y1="0" x2="56" y2="177" fill="rgb(0, 0, 0)" stroke="rgb(66, 66, 66)" stroke-width="1px" opacity="0.25"></line><line x1="84" y1="0" x2="84" y2="177" fill="rgb(0, 0, 0)" stroke="rgb(66, 66, 66)" stroke-width="1px" opacity="0.25"></line><line x1="112" y1="0" x2="112" y2="177" fill="rgb(0, 0, 0)" stroke="rgb(66, 66, 66)" stroke-width="1px" opacity="0.25"></line><line x1="140" y1="0" x2="140" y2="177" fill="rgb(0, 0, 0)" stroke="rgb(66, 66, 66)" stroke-width="1px" opacity="0.25"></line><line x1="168" y1="0" x2="168" y2="177" fill="rgb(0, 0, 0)" stroke="rgb(66, 66, 66)" stroke-width="1px" opacity="0.25"></line><line x1="196" y1="0" x2="196" y2="177" fill="rgb(0, 0, 0)" stroke="rgb(66, 66, 66)" stroke-width="1px" opacity="0.25"></line><line x1="224" y1="0" x2="224" y2="177" fill="rgb(0, 0, 0)" stroke="rgb(66, 66, 66)" stroke-width="1px" opacity="0.25"></line><line x1="252" y1="0" x2="252" y2="177" fill="rgb(0, 0, 0)" stroke="rgb(66, 66, 66)" stroke-width="1px" opacity="0.25"></line><line x1="280" y1="0" x2="280" y2="177" fill="rgb(0, 0, 0)" stroke="rgb(66, 66, 66)" stroke-width="1px" opacity="0.25"></line></g><g><line x1="0" y1="177" x2="280" y2="177" fill="rgb(0, 0, 0)" stroke="rgb(66, 66, 66)" stroke-width="1px" opacity="0.25"></line><line x1="0" y1="154.875" x2="280" y2="154.875" fill="rgb(0, 0, 0)" stroke="rgb(66, 66, 66)" stroke-width="1px" opacity="0.25"></line><line x1="0" y1="132.75" x2="280" y2="132.75" fill="rgb(0, 0, 0)" stroke="rgb(66, 66, 66)" stroke-width="1px" opacity="0.25"></line><line x1="0" y1="110.625" x2="280" y2="110.625" fill="rgb(0, 0, 0)" stroke="rgb(66, 66, 66)" stroke-width="1px" opacity="0.25"></line><line x1="0" y1="88.5" x2="280" y2="88.5" fill="rgb(0, 0, 0)" stroke="rgb(66, 66, 66)" stroke-width="1px" opacity="0.25"></line><line x1="0" y1="66.375" x2="280" y2="66.375" fill="rgb(0, 0, 0)" stroke="rgb(66, 66, 66)" stroke-width="1px" opacity="0.25"></line><line x1="0" y1="44.25" x2="280" y2="44.25" fill="rgb(0, 0, 0)" stroke="rgb(66, 66, 66)" stroke-width="1px" opacity="0.25"></line><line x1="0" y1="22.12499999999998" x2="280" y2="22.12499999999998" fill="rgb(0, 0, 0)" stroke="rgb(66, 66, 66)" stroke-width="1px" opacity="0.25"></line><line x1="0" y1="0" x2="280" y2="0" fill="rgb(0, 0, 0)" stroke="rgb(66, 66, 66)" stroke-width="1px" opacity="0.25"></line></g></g></g><g><g><line x1="0" y1="177" x2="280" y2="177" fill="rgb(0, 0, 0)" stroke="rgb(153, 153, 153)" stroke-width="1.5px"></line></g></g><g><g><line x1="28" y1="0" x2="28" y2="177" fill="rgb(0, 0, 0)" stroke="rgb(153, 153, 153)" stroke-width="1.5px"></line></g></g><g><g><g><g><g><path stroke="rgb(255, 112, 67)" stroke-width="2px" d="M33.6,-25.544723646575232L34.16,6.173262741661735L34.72,-12.688631051759186L36.96,-4.792591395350156L37.52,1.5441587370686787L38.080000000000005,2.1368028017474496L38.64,9.42603676848859L39.2,25.39589565889838L39.76,38.12275472254151L40.32,28.20635567232656L40.879999999999995,25.63648430663446L41.44,47.41099213782143L42,31.143320896337872L42.56,6.9631045696591265L43.12,13.980002562811883L43.68,40.1929599179471L44.24,43.47850139774642L44.800000000000004,44.975268926340014L45.36,53.941354221959685L45.92,36.34091824100973L46.480000000000004,42.42027522406593L47.040000000000006,62.100626435920674L47.6,64.81913539570581L48.16,76.06477272294335L48.72,56.81166162217959L49.279999999999994,77.4070560523458L49.839999999999996,84.33221318706497L50.4,79.98309615870863L50.96,75.8700269002741L51.519999999999996,72.73496568210209L52.08,61.74109018206427L52.64,59.70235466167671L53.2,51.785991390450526L53.76,63.980890355962366L54.32,72.34527879088104L54.88,64.44108424990897L55.440000000000005,72.3458054709577L56,84.56250136195422L56.56,84.73090342416727L57.12,75.60777019175833L57.68,89.8966400733121L58.239999999999995,96.25162533436057L58.8,95.92405919813397L59.36,87.94720459033714L59.92,94.29171463727897L60.48,76.94427458274096L61.04,91.97672404469809L61.6,100.36053016221122L62.160000000000004,107.26550990490992L62.72,104.40387484967036L63.28,102.06761740842056L63.84,105.9540598855084L64.4,99.92711152155192L64.96000000000001,96.54380786653753L65.52000000000001,101.46998111336765L66.08,88.56963975387416L66.64,98.88871224914553L67.2,107.87760126147901L67.75999999999999,108.03276296476564L68.32,95.67901806321765L68.88,83.77929283626094L69.44,97.55219454994628L70,97.27387443739671L70.56,89.21087326367794L71.12,105.00918123541831L71.68,115.41809936713314L72.24000000000001,120.12692029722713L72.8,117.4274366126101L73.36,109.43568634320144L73.92,104.54562993543652L74.48,109.07151179021481L75.04,118.44193881269325L75.60000000000001,118.65630478644984L76.16000000000001,118.14840691862771L76.72,118.45381389157932L77.28,121.41466790048457L77.84,125.17490755980121L78.4,118.10473289021795L78.96,117.98867745245364L79.52,114.94933164928774L80.08,120.67079832666768L80.64,115.83535400078388L81.19999999999999,124.03359754224535L81.75999999999999,122.23385438935408L82.32,121.76657904791206L82.88,120.7753995085947L83.44,125.56147176475478L84,124.07027215630502L84.56,124.57974220325465L85.12,122.65763375467012L85.67999999999999,114.09267482939929L86.24,116.02257200983803L86.8,119.0250564051875L87.36,118.12049933609119L87.92,117.37316389992385L88.48,123.88664805882901L89.04,130.09025357920666L89.60000000000001,125.90595502113543L90.16,123.76404311257744L90.72,127.71642807646481L91.28,129.55975956446758L91.84,132.34192124591368L92.4,131.70602852976975L92.96000000000001,126.67219689340388L93.52000000000001,131.25699345455166L94.08000000000001,132.8234731573498L94.64,135.38091180100355L95.2,138.49232305995713L95.76,137.38511363290004L96.32,130.5302822597161L96.88,132.23906697302075L97.44,123.5664129393191L98,116.36531724404637L98.55999999999999,118.93504741785733L99.11999999999999,121.8597131878007L99.67999999999999,128.100632620446L100.24,123.01215517749911L100.8,124.78374383773223L101.36,131.3506270922024L101.92,131.93011013764436L102.48,115.30305668621239L103.03999999999999,116.41398792957649L103.6,121.89665320550137L104.16,126.80687918385703L104.72,126.17456100841368L105.28,131.97381858429316L105.84,132.3012935662329L106.4,135.9244422260857L106.96000000000001,135.15724405870952L107.52,133.15934515245922L108.08,131.65314519516033L108.64,132.3980953111434L109.2,127.15680995146538L109.76,124.42955256438317L110.32000000000001,126.88865902572013L110.88000000000001,128.32484055451536L111.44000000000001,130.3897283935069L112,127.90172566367798L112.56,131.12188101123937L113.12,132.11746853700976L113.68,136.22811029545488L114.24,135.54156189451825L114.8,136.63203018443414L115.36,132.44416750356035L115.91999999999999,130.90265196306692L116.47999999999999,129.48866669121793L117.03999999999999,132.10429451932558L117.6,136.09722065036027L118.16,136.54638844977038L118.72,133.69649155624342L119.28,131.6395269267269L119.84,134.48306027881847L120.39999999999999,137.34122787018148L120.96,140.47080479416712L121.52,144.33381784638593L122.08,142.18594060536225L122.64,141.7153305624187L123.2,146.7608658273822L123.76,144.48891581817304L124.32000000000001,142.86662573016488L124.88,145.26539728449615L125.44,144.69971258268106L126,144.8868970495483L126.56,144.87752641198165L127.12,148.74886901949122L127.68,148.73344845376477L128.24,143.31127318435648L128.8,147.8385854376852L129.36,146.98910981925573L129.92000000000002,146.22894302055087L130.48000000000002,144.18297109146326L131.04000000000002,137.43761262008195L131.6,135.56725448531594L132.16,135.83768208757155L132.72,138.2068219490207L133.28,137.8256087493811L133.84,139.64821064722025L134.4,139.71990488507737L134.96,140.42727939919166L135.51999999999998,140.59830081841667L136.07999999999998,139.81733118411194L136.64,142.32365206038978L137.2,145.81852141413702L137.76,149.11321671020158L138.32,149.82928563836168L138.88,152.50536546033888L139.44,153.53251607781513L140,154.56196674445786L140.56,153.4758184618623L141.12,153.0005786123497L141.68,153.30983943358794L142.24,151.74742622537605L142.8,153.3088342870813L143.36,152.57699696052322L143.92000000000002,152.6484216743156L144.48000000000002,153.19009638464124L145.04,151.91562719239693L145.6,146.38254173155966L146.16,148.46596918121034L146.72,149.39261554697188L147.28,149.3197322077321L147.84,149.60122147216748L148.4,152.09587317788214L148.96,153.6772588943458L149.52,152.4945753931264L150.08,148.90890810064286L150.64000000000001,147.43642143020367L151.20000000000002,146.91788354096911L151.76000000000002,149.4054987003094L152.32000000000002,152.15749729262657L152.88000000000002,148.7909081123359L153.44,151.61859580957665L154,151.3801233697088L154.56,152.92636467125425L155.12,152.3225025721649L155.68,151.10724322316108L156.24,154.87282274898996L156.8,153.18969437025254L157.36,152.82729692745067L157.92,155.1853183238975L158.48,152.58032629012445L159.04,151.72965867311137L159.6,153.96203472217397L160.16,155.37599048838305L160.72,154.22601914394818L161.28,155.36431231212717L161.83999999999997,155.66653461765262L162.39999999999998,157.04274290136107L162.95999999999998,156.6117393453813L163.51999999999998,154.3322318446947L164.07999999999998,156.4515791767724L164.64,157.14779925995396L165.2,157.9223734449421L165.76,156.89629350519624L166.32,156.76783979354917L166.88,156.8959959930546L167.44,158.01457334656968L168,158.8750168275428L168.56,156.5491951471771L169.12,157.41872924849125L169.68,155.6793582525312L170.24,157.21796978519612L170.79999999999998,154.42294872350993L171.35999999999999,155.4640404899642L171.92,158.35055559218154L172.48,158.3683906076266L173.04,158.13274860026917L173.6,159.0912073235138L174.16,159.85674713463257L174.72,156.8692127125601L175.28,158.01782434262051L175.84,159.4676091775244L176.4,159.96927153087827L176.96,160.57237047488792L177.52,158.79265365081463L178.08,159.25125515600254L178.64000000000001,161.04192426474518L179.20000000000002,158.3360483958371L179.76,157.60358598539517L180.32,154.8345837044897L180.88,155.46688160326673L181.44,154.34149420239982L182,155.6250324439836L182.56,158.61461093609898L183.12,159.5928355515435L183.68,157.45222982919572L184.24,157.63692153524673L184.8,159.3591654832479L185.36,158.09204697093017L185.92000000000002,156.5528446518594L186.48000000000002,159.64431633290434L187.04000000000002,159.71139176796694L187.60000000000002,160.3254605624911L188.16000000000003,160.8528778972156L188.72,160.4142520875701L189.28,159.91920401198976L189.84,161.40898708186782L190.4,159.80723765098148L190.96,160.46805484496036L191.52,160.4506059768385L192.08,158.3316220094315L192.64,159.59597395469558L193.2,161.77239188039934L193.76,159.05032413778983L194.32,159.85387650104335L194.88,161.1119113567477L195.44,161.60747042176533L196,161.81728023971937L196.56,162.74268966660765L197.11999999999998,161.75823171285313L197.67999999999998,161.0255144923219L198.23999999999998,162.2724090485037L198.79999999999998,161.35338719018614L199.35999999999999,159.9809169548575L199.92,161.2732553505159L200.48,158.94046980113578L201.04,158.52765331064637L201.6,160.87352975395308L202.16,157.95821042917362L202.72,156.19699593018558L203.28,157.91327254822366L203.84,159.39308886327157L204.4,159.15304941183513L204.96,161.09224423680044L205.51999999999998,161.94537659608326L206.07999999999998,163.0444319168918L206.64,164.41663367058368L207.2,163.78379080373364L207.76,163.4311858650681L208.32,164.55198313551466L208.88,164.69182797060054L209.44,164.78162763596336L210,164.91185951132036L210.56,164.99693610030238L211.12,165.34829873624264L211.68,164.29325254392813L212.24,165.48810929865206L212.8,164.70104310557957L213.36,165.5412405659748L213.92000000000002,165.56320489823776L214.48000000000002,165.63591735487034L215.04,165.3331014714381L215.6,165.0343775787497L216.16,164.97246649504345L216.72,165.1102721804754L217.28,165.47625500617556L217.84,166.65035980787317L218.4,166.55307066665702L218.96,163.73463336234013L219.52,164.0754508425204L220.08,164.36338582398568L220.64000000000001,165.07785294696436L221.20000000000002,164.06060529580932L221.76000000000002,164.2591994328609L222.32000000000002,164.81279057813052L222.88000000000002,165.52019718898006L223.44,164.91552235076304L224,165.09149471446187L224.56,166.00330258128753L225.12,167.08739043343192L225.68,165.93877383464576L226.24,165.60246296499074L226.8,166.3048895797254L227.36,166.4061705099156L227.92,165.79404505724372L228.48,165.6991680600325L229.04,164.83540996260672L229.6,165.62927701605696L230.16,164.656803508581L230.72,165.66602203919368L231.28,166.79870973966345L231.83999999999997,167.39608617380978L232.39999999999998,165.9700165907262L232.95999999999998,163.04612624949027L233.51999999999998,163.91900388650333L234.07999999999998,165.07451565890975L234.64,165.5668855997814L235.2,164.77952417633045L235.76,165.270379977177L236.32,166.75296400591753L236.88,167.38127279716744L237.44,166.74903388899125L238,167.16967152256703L238.56,167.34814790084323L239.12,166.70758209539943L239.68,167.17802230124022L240.24,166.08994487511723L240.79999999999998,167.25015660553302L241.35999999999999,166.7649352317177L241.92,166.66456123131127L242.48,166.2952562121681L243.04,167.10341099498834L243.6,166.7426478841605L244.16,167.17130532566173L244.72,166.55692537287453L245.28,167.39367822792502L245.84,167.2771771984294L246.4,167.9673201619812L246.96,167.77813197865208L247.52,168.04671573130634L248.08,167.14838619262486L248.64000000000001,167.81527557356773L249.20000000000002,168.1283904766712L249.76,168.3295518282457L250.32,168.6315042009557L250.88,167.17571028923496L251.44,167.68925276899267L252,167.9998090890936" style="fill: none;" fill="none"></path></g></g></g></g><g opacity="0.2"><g><g><g><path stroke="rgb(255, 112, 67)" stroke-width="2px" d="M33.04,-32.20077357441187L33.6,9.281501311808825L34.16,53.46256252191961L34.72,-40.878826148808L35.84,-7.33651439845562L36.4,13.89817450940609L36.96,1.9615333043038845L37.52,11.046602435410023L38.080000000000005,3.025618426501751L38.64,20.358777277171612L39.2,49.34922428615391L39.76,57.21234534680843L40.32,13.332083400338888L40.879999999999995,21.781727995723486L41.44,80.07249594479799L42,6.741929657757282L42.56,-29.30711680278182L43.12,24.505331598222256L43.68,79.51235570758581L44.24,48.40681059099734L44.800000000000004,47.22041939198971L45.36,67.39047919213772L45.92,9.940267771482468L46.480000000000004,51.53930997289717L47.040000000000006,91.62115184403956L47.6,68.8968987185508L48.16,92.93322842381895L48.72,27.931995268911123L49.279999999999994,108.3001475064084L49.839999999999996,94.71994885057211L50.4,73.45942063070834L50.96,69.7004230208695L51.519999999999996,68.03237385861576L52.08,45.25027693994343L52.64,56.64425138197839L53.2,39.91144648566842L53.76,82.2732388023287L54.32,84.89186144247651L54.88,52.58479243889451L55.440000000000005,84.20288730226457L56,102.88754519820213L56.56,84.98350651748478L57.12,61.92307034321129L57.68,111.32994489558041L58.239999999999995,105.78410322591662L58.8,95.43270999379456L59.36,75.98192267864943L59.92,103.8084797076881L60.48,50.923114500939846L61.04,114.52539823763072L61.6,112.93623933847994L62.160000000000004,117.62297951895744L62.72,100.11142226681113L63.28,98.56323124654591L63.84,111.78372360114008L64.4,90.88668897561729L64.96000000000001,91.46885238401592L65.52000000000001,108.85924098361284L66.08,69.21912771463394L66.64,114.36732099205256L67.2,121.36093477997929L67.75999999999999,108.26550551969558L68.32,77.14840071089566L68.88,65.92970499582589L69.44,118.21154712047428L70,96.85639426857233L70.56,77.1163715030998L71.12,128.70664319302887L71.68,131.03147656470537L72.24000000000001,127.19015169236809L72.8,113.3782110856846L73.36,97.44806093908846L73.92,97.21054532378912L74.48,115.86033457238227L75.04,132.49757934641093L75.60000000000001,118.97785374708474L76.16000000000001,117.38656011689454L76.72,118.91192435100675L77.28,125.85594891384244L77.84,130.81526704877615L78.4,107.49947088584304L78.96,117.81459429580718L79.52,110.39031294453889L80.08,129.25299834273756L80.64,108.58218751195818L81.19999999999999,136.33096285443753L81.75999999999999,119.53423966001719L82.32,121.06566603574902L82.88,119.28863019961864L83.44,132.74058014899492L84,121.83347274363041L84.56,125.34394727367908L85.12,119.77447108179331L85.67999999999999,101.24523644149303L86.24,118.91741778049618L86.8,123.52878299821168L87.36,116.76366373244673L87.92,116.25216074567288L88.48,133.65687429718673L89.04,139.3956618597731L89.60000000000001,119.62950718402863L90.16,120.55117524974048L90.72,133.64500552229583L91.28,132.32475679647177L91.84,136.51516376808286L92.4,130.7521894555539L92.96000000000001,119.12144943885505L93.52000000000001,138.13418829627335L94.08000000000001,135.17319271154702L94.64,139.2170697664842L95.2,143.15943994838744L95.76,135.72429949231446L96.32,120.2480351999402L96.88,134.8022440429777L97.44,110.55743188876659L98,105.5636737011373L98.55999999999999,122.78964267857373L99.11999999999999,126.24671184271574L99.67999999999999,137.46201176941395L100.24,115.37943901307881L100.8,127.4411268280819L101.36,141.20095197390765L101.92,132.79933470580727L102.48,90.36247650906444L103.03999999999999,118.08038479462266L103.6,130.12065111938864L104.16,134.17221815139055L104.72,125.22608374524862L105.28,140.67270494811237L105.84,132.7925060391426L106.4,141.35916521586478L106.96000000000001,134.00644680764526L107.52,130.16249679308385L108.08,129.39384525921196L108.64,133.51552048511803L109.2,119.29488191194832L109.76,120.33866648375988L110.32000000000001,130.57731871772557L110.88000000000001,130.47911284770817L111.44000000000001,133.48706015199423L112,124.16972156893462L112.56,135.95211403258145L113.12,133.61084982566535L113.68,142.39407293312252L114.24,134.51173929311335L114.8,138.26773261930794L115.36,126.16237348224968L115.91999999999999,128.59037865232676L116.47999999999999,127.36768878344446L117.03999999999999,136.027736261487L117.6,142.08660984691232L118.16,137.22014014888555L118.72,129.42164621595293L119.28,128.5540799824521L119.84,138.74836030695587L120.39999999999999,141.628479257226L120.96,145.16517018014565L121.52,150.12833742471412L122.08,138.9641247438267L122.64,141.00941549800336L123.2,154.32916872482747L123.76,141.08099080435932L124.32000000000001,140.43319059815258L124.88,148.86355461599305L125.44,143.85118552995846L126,145.1676737498492L126.56,144.8634704556316L127.12,154.55588293075562L127.68,148.71031760517508L128.24,135.17801028024405L128.8,154.62955381767824L129.36,145.71489639161155L129.92000000000002,145.0886928224936L130.48000000000002,141.1140131978318L131.04000000000002,127.31957491301L131.6,132.76171728316694L132.16,136.24332349095494L132.72,141.76053174119443L133.28,137.25378894992173L133.84,142.38211349397898L134.4,139.82744624186307L134.96,141.48834117036313L135.51999999999998,140.85483294725418L136.07999999999998,138.64587673265487L136.64,146.0831333748065L137.2,151.06082544475794L137.76,154.05525965429842L138.32,150.90338903060183L138.88,156.51948519330472L139.44,155.07324200402945L140,156.10614274442196L140.56,151.846596037969L141.12,152.28771883808076L141.68,153.77373066544533L142.24,149.4038064130582L142.8,155.6509463796392L143.36,151.47924097068608L143.92000000000002,152.75555874500424L144.48000000000002,154.00260845012963L145.04,150.0039234040305L145.6,138.0829135403037L146.16,151.5911103556864L146.72,150.7825850956142L147.28,149.21040719887242L147.84,150.02345536882058L148.4,155.83785073645413L148.96,156.04933746904135L149.52,150.72055014129728L150.08,143.53040716191754L150.64000000000001,145.2276914245449L151.20000000000002,146.14007670711726L151.76000000000002,153.13692143931985L152.32000000000002,156.2854951811023L152.88000000000002,143.7410243418999L153.44,155.86012735543773L154,151.02241470990703L154.56,155.2457266235724L155.12,151.41670942353085L155.68,149.28435419965535L156.24,160.52119203773327L156.8,150.66500180214643L157.36,152.2837007632479L157.92,158.72235041856766L158.48,148.6728382394649L159.04,150.45365724759176L159.6,157.31059879576787L160.16,157.49692413769662L160.72,152.50106212729588L161.28,157.0717520643957L161.83999999999997,156.11986807594076L162.39999999999998,159.10705532692373L162.95999999999998,155.96523401141167L163.51999999999998,150.9129705936648L164.07999999999998,159.63060017488897L164.64,158.1921293847263L165.2,159.0842347224243L165.76,155.35717359557748L166.32,156.57515922607854L166.88,157.0882302923128L167.44,159.69243937684223L168,160.1656820490025L168.56,153.06046262662858L169.12,158.72303040046245L169.68,153.07030175859109L170.24,159.52588708419353L170.79999999999998,150.23041713098064L171.35999999999999,157.0256781396456L171.92,162.68032824550755L172.48,158.39514313079417L173.04,157.77928558923304L173.6,160.52889540838078L174.16,161.00505685131066L174.72,152.38791107945144L175.28,159.74074178771116L175.84,161.6422864298802L176.4,160.7217650609091L176.96,161.4770188909024L177.52,156.12307841470465L178.08,159.93915741378441L178.64000000000001,163.72792792785913L179.20000000000002,154.277234592475L179.76,156.50489236973226L180.32,150.68108028313145L180.88,156.4153284514323L181.44,152.65341310109943L182,157.55033980635926L182.56,163.09897867427208L183.12,161.06017247471027L183.68,154.24132124567404L184.24,157.91395909432322L184.8,161.9425314052496L185.36,156.19136920245364L185.92000000000002,154.2440411732532L186.48000000000002,164.28152385447174L187.04000000000002,159.81200492056087L187.60000000000002,161.2465637542773L188.16000000000003,161.64400389930233L188.72,159.75631337310188L189.28,159.17663189861923L189.84,163.64366168668494L190.4,157.40461350465193L190.96,161.45928063592874L191.52,160.4244326746557L192.08,155.153146058321L192.64,161.49250187259167L193.2,165.03701876895502L193.76,154.96722252387553L194.32,161.0592050459236L194.88,162.99896364030428L195.44,162.35080901929177L196,162.13199496665038L196.56,164.1308038069401L197.11999999999998,160.28154478222132L197.67999999999998,159.92643866152503L198.23999999999998,164.14275088277645L198.79999999999998,159.97485440270975L199.35999999999999,157.92221160186455L199.92,163.21176294400357L200.48,155.44129147706553L201.04,157.90842857491225L201.6,164.39234441891313L202.16,153.58523144200444L202.72,153.55517418170348L203.28,160.48768747528084L203.84,161.61281333584338L204.4,158.79299023468047L204.96,164.0010364742484L205.51999999999998,163.2250751350075L206.07999999999998,164.6930148981046L206.64,166.4749363011215L207.2,162.83452650345862L207.76,162.90227845706977L208.32,166.23317904118448L208.88,164.90159522322938L209.44,164.9163271340076L210,165.10720732435584L210.56,165.1245509837754L211.12,165.87534269015305L211.68,162.7106832554564L212.24,167.28039443073794L212.8,163.5204438159708L213.36,166.80153675656766L213.92000000000002,165.5961513966322L214.48000000000002,165.7449860398192L215.04,164.87887764628977L215.6,164.58629173971713L216.16,164.87959986948408L216.72,165.3169807086233L217.28,166.02522924472578L217.84,168.41151701041963L218.4,166.40713695483282L218.96,159.50697740586475L219.52,164.58667706279084L220.08,164.79528829618357L220.64000000000001,166.14955363143235L221.20000000000002,162.5347338190768L221.76000000000002,164.55709063843824L222.32000000000002,165.643177296035L222.88000000000002,166.58130710525438L223.44,164.0085100934375L224,165.3554532600101L224.56,167.37101438152604L225.12,168.71352221164852L225.68,164.2158489364665L226.24,165.09799666050822L226.8,167.35852950182743L227.36,166.55809190520085L227.92,164.87585687823594L228.48,165.55685256421566L229.04,163.53977281646803L229.6,166.8200775962323L230.16,163.19809324736707L230.72,167.1798498351127L231.28,168.49774129036814L231.83999999999997,168.29215082502924L232.39999999999998,163.83091221610084L232.95999999999998,158.6602907376364L233.51999999999998,165.22832034202293L234.07999999999998,166.80778331751935L234.64,166.30544051108882L235.2,163.59848204115406L235.76,166.00666367844678L236.32,168.9768400490284L236.88,168.3237359840423L237.44,165.800675526727L238,167.80062797293067L238.56,167.61586246825755L239.12,165.7467333872337L239.68,167.88368261000142L240.24,164.4578287359327L240.79999999999998,168.99047420115676L241.35999999999999,166.03710317099467L241.92,166.51400023070164L242.48,165.74129868345335L243.04,168.31564316921867L243.6,166.2015032179188L244.16,167.81429148791358L244.72,165.6353554436937L245.28,168.64880751050077L245.84,167.10242565418594L246.4,169.00253460730892L246.96,167.49434970365837L247.52,168.44959136028774L248.08,165.8008918846026L248.64000000000001,168.81560964498203L249.20000000000002,168.5980628313264L249.76,168.6312938556075L250.32,169.08443276002072L250.88,164.99201942165382L251.44,168.4595664886292L252,168.465643569245" style="fill: none;" fill="none"></path></g></g></g></g></g></g><g transform="translate(50, 177)" clip-path="url(#clip_1)"><clipPath id="clip_1"><rect width="280" height="23"></rect></clipPath><g><g><line x1="0" y1="0" x2="0" y2="5" style="visibility: inherit;" fill="rgb(0, 0, 0)" stroke="rgb(204, 204, 204)" stroke-width="1px"></line><line x1="28" y1="0" x2="28" y2="5" style="visibility: inherit;" fill="rgb(0, 0, 0)" stroke="rgb(204, 204, 204)" stroke-width="1px"></line><line x1="56" y1="0" x2="56" y2="5" style="visibility: inherit;" fill="rgb(0, 0, 0)" stroke="rgb(204, 204, 204)" stroke-width="1px"></line><line x1="84" y1="0" x2="84" y2="5" style="visibility: inherit;" fill="rgb(0, 0, 0)" stroke="rgb(204, 204, 204)" stroke-width="1px"></line><line x1="112" y1="0" x2="112" y2="5" style="visibility: inherit;" fill="rgb(0, 0, 0)" stroke="rgb(204, 204, 204)" stroke-width="1px"></line><line x1="140" y1="0" x2="140" y2="5" style="visibility: inherit;" fill="rgb(0, 0, 0)" stroke="rgb(204, 204, 204)" stroke-width="1px"></line><line x1="168" y1="0" x2="168" y2="5" style="visibility: inherit;" fill="rgb(0, 0, 0)" stroke="rgb(204, 204, 204)" stroke-width="1px"></line><line x1="196" y1="0" x2="196" y2="5" style="visibility: inherit;" fill="rgb(0, 0, 0)" stroke="rgb(204, 204, 204)" stroke-width="1px"></line><line x1="224" y1="0" x2="224" y2="5" style="visibility: inherit;" fill="rgb(0, 0, 0)" stroke="rgb(204, 204, 204)" stroke-width="1px"></line><line x1="252" y1="0" x2="252" y2="5" style="visibility: inherit;" fill="rgb(0, 0, 0)" stroke="rgb(204, 204, 204)" stroke-width="1px"></line><line x1="280" y1="0" x2="280" y2="5" style="visibility: inherit;" fill="rgb(0, 0, 0)" stroke="rgb(204, 204, 204)" stroke-width="1px"></line></g><g transform="translate(0, 8)"><text x="0" y="0" dx="0em" dy="0.95em" style="text-anchor: middle; visibility: hidden; font-family: Roboto, sans-serif; font-size: 12px; font-weight: 200;" fill="rgb(33, 33, 33)" stroke="none" stroke-width="1px">-5k</text><text x="28" y="0" dx="0em" dy="0.95em" style="text-anchor: middle; visibility: inherit; font-family: Roboto, sans-serif; font-size: 12px; font-weight: 200;" fill="rgb(33, 33, 33)" stroke="none" stroke-width="1px">0</text><text x="56" y="0" dx="0em" dy="0.95em" style="text-anchor: middle; visibility: inherit; font-family: Roboto, sans-serif; font-size: 12px; font-weight: 200;" fill="rgb(33, 33, 33)" stroke="none" stroke-width="1px">5k</text><text x="84" y="0" dx="0em" dy="0.95em" style="text-anchor: middle; visibility: inherit; font-family: Roboto, sans-serif; font-size: 12px; font-weight: 200;" fill="rgb(33, 33, 33)" stroke="none" stroke-width="1px">10k</text><text x="112" y="0" dx="0em" dy="0.95em" style="text-anchor: middle; visibility: inherit; font-family: Roboto, sans-serif; font-size: 12px; font-weight: 200;" fill="rgb(33, 33, 33)" stroke="none" stroke-width="1px">15k</text><text x="140" y="0" dx="0em" dy="0.95em" style="text-anchor: middle; visibility: inherit; font-family: Roboto, sans-serif; font-size: 12px; font-weight: 200;" fill="rgb(33, 33, 33)" stroke="none" stroke-width="1px">20k</text><text x="168" y="0" dx="0em" dy="0.95em" style="text-anchor: middle; visibility: inherit; font-family: Roboto, sans-serif; font-size: 12px; font-weight: 200;" fill="rgb(33, 33, 33)" stroke="none" stroke-width="1px">25k</text><text x="196" y="0" dx="0em" dy="0.95em" style="text-anchor: middle; visibility: inherit; font-family: Roboto, sans-serif; font-size: 12px; font-weight: 200;" fill="rgb(33, 33, 33)" stroke="none" stroke-width="1px">30k</text><text x="224" y="0" dx="0em" dy="0.95em" style="text-anchor: middle; visibility: inherit; font-family: Roboto, sans-serif; font-size: 12px; font-weight: 200;" fill="rgb(33, 33, 33)" stroke="none" stroke-width="1px">35k</text><text x="252" y="0" dx="0em" dy="0.95em" style="text-anchor: middle; visibility: inherit; font-family: Roboto, sans-serif; font-size: 12px; font-weight: 200;" fill="rgb(33, 33, 33)" stroke="none" stroke-width="1px">40k</text><text x="280" y="0" dx="0em" dy="0.95em" style="text-anchor: middle; visibility: hidden; font-family: Roboto, sans-serif; font-size: 12px; font-weight: 200;" fill="rgb(33, 33, 33)" stroke="none" stroke-width="1px">45k</text></g><line x1="0" y1="0" x2="280" y2="0" fill="rgb(0, 0, 0)" stroke="rgb(204, 204, 204)" stroke-width="1px"></line></g></g></g></g></svg>